<?xml version="1.0" encoding="UTF-8" standalone="no"?>
<svg
        xmlns:inkscape="http://www.inkscape.org/namespaces/inkscape"
        xmlns:sodipodi="http://sodipodi.sourceforge.net/DTD/sodipodi-0.dtd"
        version="1.1"
        x="0px"
        y="0px"
        width="300"
        height="260.70081"
        viewBox="0 0 300.00001 260.7008"
        enable-background="new 0 0 500 421"
        xml:space="preserve"
        id="svg2711"
        sodipodi:docname="cloud-computing.svg"
        xmlns="http://www.w3.org/2000/svg"
><defs
   id="defs2715" />
    <sodipodi:namedview
            id="namedview2713"
            pagecolor="#505050"
            bordercolor="#eeeeee"
            borderopacity="1"
            inkscape:pageshadow="0"
            inkscape:pageopacity="0"
            inkscape:pagecheckerboard="0"
            showgrid="false"
            units="px"/>
    <g
            id="BACKGROUND">
</g>
    <g
            id="DESIGNED_BY_FREEPIK"
            transform="translate(-100.30699,-77.641466)">
	<g
            id="g2708">
		<g
                id="g2354">
			<g
                    id="g2334">
				<g
                        id="g2332">
					<polygon
                            fill="#0b4870"
                            points="131.008,330.846 137.37,300.311 140.161,300.377 132.661,330.846 "
                            id="polygon2330"/>
				</g>
			</g>
            <g
                    id="g2340">
				<g
                        id="g2338">
					<polygon
                            fill="#0b4870"
                            points="139.191,330.846 145.553,300.311 148.346,300.377 140.844,330.846 "
                            id="polygon2336"/>
				</g>
			</g>
            <g
                    id="g2346">
				<g
                        id="g2344">
					<polygon
                            fill="#0b4870"
                            points="170.738,330.846 164.377,300.311 161.584,300.377 169.086,330.846 "
                            id="polygon2342"/>
				</g>
			</g>
            <g
                    id="g2352">
				<g
                        id="g2350">
					<path
                            fill="#d3d3d3"
                            d="m 168.684,303.416 h -32.325 c 0,0 -2.251,-2.791 -3.76,-9.289 -1.696,-7.309 -5.122,-31.719 -5.122,-31.719 0,0 0.908,-2.271 15.119,-1.98 l 25.446,32.158 c 0,0 0.87,7.812 0.642,10.83 z"
                            id="path2348"/>
				</g>
			</g>
		</g>
        <path
                opacity="0.5"
                fill="#ffbe55"
                d="m 387.279,106.803 c 0,0 1.578,-8.406 -4.728,-12.607 -6.304,-4.203 -13.134,-2.891 -15.497,0 l -0.115,0.121 c -1.468,-3.025 -4.569,-5.111 -8.158,-5.111 -4.736,0 -8.623,3.631 -9.027,8.262 -1.033,-0.41 -2.161,-0.635 -3.34,-0.635 -3.846,0 -7.131,2.395 -8.447,5.773 -6.309,0.172 -11.371,5.342 -11.371,11.691 0,6.461 5.238,11.697 11.697,11.697 1.229,0 43.472,-0.541 43.472,-0.541 0,0 12.607,2.625 12.607,-7.879 0,-10.508 -7.093,-10.771 -7.093,-10.771 z"
                id="path2356"/>
        <g
                id="g2360">
			<polygon
                    fill="#ffbe55"
                    points="367.748,165.787 336.848,165.787 336.848,166.623 368.494,166.623 368.494,121.307 367.748,121.307 "
                    id="polygon2358"/>
		</g>
        <g
                id="g2364">
			<path
                    fill="#ffbe55"
                    d="m 365.372,118.932 c 0,-1.516 1.233,-2.746 2.748,-2.746 1.517,0 2.749,1.23 2.749,2.746 0,1.516 -1.232,2.75 -2.749,2.75 -1.515,0 -2.748,-1.235 -2.748,-2.75 z m 0.749,0 c 0,1.105 0.896,2 1.999,2 1.104,0 2.001,-0.895 2.001,-2 0,-1.102 -0.896,-1.998 -2.001,-1.998 -1.102,0 -1.999,0.896 -1.999,1.998 z"
                    id="path2362"/>
		</g>
        <g
                id="g2368">
			<polygon
                    fill="#ffbe55"
                    points="377.018,174.135 346.117,174.135 346.117,175.129 377.766,175.129 377.766,121.307 377.018,121.307 "
                    id="polygon2366"/>
		</g>
        <g
                id="g2372">
			<path
                    fill="#ffbe55"
                    d="m 374.644,118.932 c 0,-1.516 1.231,-2.746 2.748,-2.746 1.517,0 2.747,1.23 2.747,2.746 0,1.516 -1.23,2.75 -2.747,2.75 -1.517,0 -2.748,-1.235 -2.748,-2.75 z m 0.748,0 c 0,1.105 0.897,2 2,2 1.104,0 2,-0.895 2,-2 0,-1.102 -0.896,-1.998 -2,-1.998 -1.103,0 -2,0.896 -2,1.998 z"
                    id="path2370"/>
		</g>
        <g
                id="g2420">
			<path
                    fill="#0e538c"
                    d="m 352.666,145.773 v 91.4 l -1.248,3.037 -0.871,-0.777 c -1.004,2.525 -1.906,5.656 -1.781,8.551 0.062,1.459 0.275,3.453 0.565,5.658 l 3.114,0.361 v 1.027 l -0.644,0.221 -2.134,0.729 c -0.008,0.016 -0.008,0.023 -0.015,0.039 0.446,3.139 0.987,6.441 1.442,9.07 -2.503,0.016 -5.287,0.064 -7.43,0.104 0.022,-1.617 0.062,-3.57 0.094,-5.604 -0.244,0.008 -0.518,0.008 -0.801,0.008 -0.305,0 -0.619,-0.008 -0.926,-0.016 -0.572,-0.008 -1.113,-0.023 -1.475,-0.039 0.008,0.086 0.023,0.15 0.039,0.195 0,0 -0.314,-0.031 -0.832,-0.094 -0.493,4.08 -1.012,7.562 -1.012,7.562 l 0.689,0.283 c -0.359,1.201 -0.838,2.816 -1.372,4.654 h -167.36 c -5.053,0 -9.156,-4.104 -9.156,-9.164 V 145.773 c 0,-5.062 4.104,-9.166 9.156,-9.166 h 172.791 c 5.063,0 9.167,4.104 9.167,9.166 z"
                    id="path2374"/>
            <g
                    id="g2418">
				<path
                        fill="#ffbe55"
                        d="m 224.16,153.662 h -38.287 c -1.362,0 -2.469,-1.104 -2.469,-2.465 v -0.314 c 0,-1.363 1.106,-2.467 2.469,-2.467 h 38.287 c 1.362,0 2.467,1.104 2.467,2.467 v 0.314 c 0,1.362 -1.105,2.465 -2.467,2.465 z"
                        id="path2376"/>
                <path
                        fill="#ffbe55"
                        d="m 235.402,169.246 h -38.285 c -1.363,0 -2.469,-1.104 -2.469,-2.467 v -0.311 c 0,-1.363 1.105,-2.469 2.469,-2.469 h 38.285 c 1.363,0 2.465,1.105 2.465,2.469 v 0.311 c 0,1.364 -1.101,2.467 -2.465,2.467 z"
                        id="path2378"/>
                <path
                        fill="#2a94f4"
                        d="m 333.183,169.246 h -87.13 c -1.363,0 -2.468,-1.104 -2.468,-2.467 v -0.311 c 0,-1.363 1.104,-2.469 2.468,-2.469 h 87.13 c 1.362,0 2.467,1.105 2.467,2.469 v 0.311 c -10e-4,1.364 -1.105,2.467 -2.467,2.467 z"
                        id="path2380"/>
                <path
                        fill="#ffbe55"
                        d="m 257.108,180.334 h -59.991 c -1.363,0 -2.469,-1.104 -2.469,-2.467 v -0.312 c 0,-1.363 1.105,-2.467 2.469,-2.467 h 59.991 c 1.362,0 2.466,1.104 2.466,2.467 v 0.312 c 0,1.363 -1.103,2.467 -2.466,2.467 z"
                        id="path2382"/>
                <path
                        fill="#2a94f4"
                        d="m 333.183,180.334 h -59.991 c -1.363,0 -2.467,-1.104 -2.467,-2.467 v -0.312 c 0,-1.363 1.104,-2.467 2.467,-2.467 h 59.991 c 1.362,0 2.467,1.104 2.467,2.467 v 0.312 c -10e-4,1.363 -1.105,2.467 -2.467,2.467 z"
                        id="path2384"/>
                <path
                        fill="#ffbe55"
                        d="m 275.658,191.42 h -78.541 c -1.363,0 -2.469,-1.104 -2.469,-2.465 v -0.312 c 0,-1.361 1.105,-2.467 2.469,-2.467 h 78.541 c 1.361,0 2.467,1.105 2.467,2.467 v 0.312 c 0,1.361 -1.105,2.465 -2.467,2.465 z"
                        id="path2386"/>
                <path
                        fill="#2a94f4"
                        d="m 333.025,191.42 h -35.713 c -1.449,0 -2.624,-1.172 -2.624,-2.621 v 0 c 0,-1.449 1.175,-2.623 2.624,-2.623 h 35.713 c 1.449,0 2.624,1.174 2.624,2.623 v 0 c 0,1.449 -1.174,2.621 -2.624,2.621 z"
                        id="path2388"/>
                <circle
                        fill="#ffffff"
                        cx="186.02901"
                        cy="166.625"
                        r="2.625"
                        id="circle2390"/>
                <circle
                        fill="#ffffff"
                        cx="186.02901"
                        cy="177.711"
                        r="2.625"
                        id="circle2392"/>
                <circle
                        fill="#ffffff"
                        cx="186.02901"
                        cy="188.799"
                        r="2.625"
                        id="circle2394"/>
                <path
                        fill="#2a94f4"
                        d="m 255.422,200.506 h -70.328 c -0.933,0 -1.689,-0.754 -1.689,-1.686 v 0 c 0,-0.932 0.757,-1.688 1.689,-1.688 h 70.328 c 0.93,0 1.687,0.756 1.687,1.688 v 0 c -10e-4,0.932 -0.757,1.686 -1.687,1.686 z"
                        id="path2396"/>
                <path
                        fill="#ffbe55"
                        d="m 235.402,225.205 h -38.285 c -1.363,0 -2.469,-1.105 -2.469,-2.467 v -0.312 c 0,-1.361 1.105,-2.465 2.469,-2.465 h 38.285 c 1.363,0 2.465,1.104 2.465,2.465 v 0.312 c 0,1.362 -1.101,2.467 -2.465,2.467 z"
                        id="path2398"/>
                <path
                        fill="#2a94f4"
                        d="m 274.564,225.205 h -28.356 c -1.45,0 -2.623,-1.174 -2.623,-2.623 v 0 c 0,-1.449 1.173,-2.621 2.623,-2.621 h 28.356 c 1.449,0 2.625,1.172 2.625,2.621 v 0 c 0,1.449 -1.175,2.623 -2.625,2.623 z"
                        id="path2400"/>
                <path
                        fill="#ffbe55"
                        d="m 236.637,236.293 h -39.52 c -1.363,0 -2.469,-1.104 -2.469,-2.467 v -0.312 c 0,-1.361 1.105,-2.467 2.469,-2.467 h 39.52 c 1.361,0 2.467,1.105 2.467,2.467 v 0.312 c 0,1.363 -1.106,2.467 -2.467,2.467 z"
                        id="path2402"/>
                <path
                        fill="#2a94f4"
                        d="m 333.183,236.293 h -87.13 c -1.363,0 -2.468,-1.104 -2.468,-2.467 v -0.312 c 0,-1.361 1.104,-2.467 2.468,-2.467 h 87.13 c 1.362,0 2.467,1.105 2.467,2.467 v 0.312 c -10e-4,1.363 -1.105,2.467 -2.467,2.467 z"
                        id="path2404"/>
                <path
                        fill="#ffbe55"
                        d="m 275.658,247.381 h -78.541 c -1.363,0 -2.469,-1.105 -2.469,-2.469 V 244.6 c 0,-1.361 1.105,-2.465 2.469,-2.465 h 78.541 c 1.361,0 2.467,1.104 2.467,2.465 v 0.312 c 0,1.363 -1.105,2.469 -2.467,2.469 z"
                        id="path2406"/>
                <path
                        fill="#2a94f4"
                        d="m 333.025,247.381 h -45.307 c -1.449,0 -2.623,-1.176 -2.623,-2.625 v 0 c 0,-1.447 1.174,-2.621 2.623,-2.621 h 45.307 c 1.449,0 2.624,1.174 2.624,2.621 v 0 c 0,1.449 -1.174,2.625 -2.624,2.625 z"
                        id="path2408"/>
                <circle
                        fill="#ffffff"
                        cx="186.02901"
                        cy="222.582"
                        r="2.625"
                        id="circle2410"/>
                <circle
                        fill="#ffffff"
                        cx="186.02901"
                        cy="233.668"
                        r="2.625"
                        id="circle2412"/>
                <circle
                        fill="#ffffff"
                        cx="186.02901"
                        cy="244.756"
                        r="2.625"
                        id="circle2414"/>
                <path
                        fill="#2a94f4"
                        d="m 255.422,256.463 h -70.328 c -0.933,0 -1.689,-0.754 -1.689,-1.686 v 0 c 0,-0.93 0.757,-1.684 1.689,-1.684 h 70.328 c 0.93,0 1.687,0.754 1.687,1.684 v 0 c -10e-4,0.932 -0.757,1.686 -1.687,1.686 z"
                        id="path2416"/>
			</g>
		</g>
        <g
                opacity="0.5"
                id="g2426">
			<g
                    id="g2424">
				<path
                        fill="#ffbe55"
                        d="m 131.764,227.053 c 1.5,2.102 3.881,3.227 6.293,3.227 1.543,0 3.107,-0.459 4.459,-1.416 3.463,-2.463 4.267,-7.287 1.812,-10.75 -2.466,-3.465 -7.291,-4.268 -10.754,-1.812 -3.463,2.464 -4.266,7.288 -1.81,10.751 z m -0.141,-5.553 c 0.289,-1.715 1.223,-3.217 2.648,-4.223 1.137,-0.816 2.455,-1.201 3.764,-1.201 2.037,0 4.051,0.943 5.316,2.732 1.008,1.416 1.406,3.143 1.115,4.857 -0.289,1.715 -1.223,3.217 -2.647,4.225 -2.927,2.078 -7.001,1.391 -9.08,-1.535 -1.009,-1.414 -1.405,-3.14 -1.116,-4.855 z m -7.019,5.822 -1.91,2.023 3.925,5.521 2.552,-1.135 c 0.834,0.676 1.747,1.242 2.722,1.703 l 0.086,2.787 6.679,1.127 0.998,-2.605 c 1.072,-0.119 2.121,-0.354 3.129,-0.719 l 2.027,1.908 5.521,-3.922 -1.138,-2.551 c 0.665,-0.838 1.245,-1.75 1.705,-2.715 l 2.787,-0.096 1.127,-6.68 -2.605,-0.996 c -0.119,-1.072 -0.366,-2.113 -0.719,-3.131 l 1.908,-2.025 -3.924,-5.52 -2.552,1.135 c -0.837,-0.674 -1.747,-1.244 -2.723,-1.705 l -0.085,-2.787 -6.678,-1.125 -0.998,2.605 c -1.072,0.117 -2.113,0.365 -3.131,0.719 l -2.026,-1.91 -5.52,3.926 1.136,2.549 c -0.664,0.838 -1.244,1.748 -1.705,2.725 l -2.787,0.086 -1.126,6.678 2.606,0.998 c 0.117,1.072 0.364,2.124 0.719,3.132 z m 8.135,-0.967 c -1.009,-1.414 -1.405,-3.141 -1.116,-4.855 0.289,-1.714 1.223,-3.217 2.648,-4.223 1.137,-0.816 2.455,-1.201 3.764,-1.201 2.037,0 4.051,0.943 5.316,2.732 1.008,1.416 1.406,3.143 1.115,4.857 -0.289,1.715 -1.223,3.217 -2.647,4.225 -2.926,2.079 -7.001,1.391 -9.08,-1.535 z"
                        id="path2422"/>
			</g>
		</g>
        <g
                opacity="0.5"
                id="g2432">
			<g
                    id="g2430">
				<path
                        fill="#ffbe55"
                        d="m 114.164,251.619 c 1.439,0.365 2.902,-0.02 3.965,-0.916 0.676,-0.57 1.195,-1.354 1.436,-2.277 0.607,-2.365 -0.828,-4.785 -3.193,-5.396 -2.367,-0.609 -4.787,0.826 -5.398,3.191 -0.609,2.367 0.827,4.785 3.19,5.398 z m -2.121,-2.389 c -0.508,-0.863 -0.654,-1.867 -0.402,-2.84 0.2,-0.779 0.635,-1.439 1.209,-1.924 0.896,-0.754 2.131,-1.088 3.352,-0.77 0.969,0.248 1.785,0.861 2.293,1.721 0.51,0.863 0.654,1.867 0.402,2.84 -0.517,1.998 -2.562,3.209 -4.561,2.693 -0.969,-0.247 -1.783,-0.858 -2.293,-1.72 z m -0.927,5.163 -0.088,1.6 3.772,0.971 0.7,-1.445 c 0.618,-0.012 1.229,-0.102 1.83,-0.258 l 1.071,1.189 3.354,-1.98 -0.529,-1.516 c 0.43,-0.449 0.804,-0.941 1.111,-1.477 l 1.599,0.086 0.972,-3.77 -1.445,-0.701 c -0.02,-0.617 -0.102,-1.229 -0.256,-1.824 l 1.189,-1.076 -1.982,-3.355 -1.517,0.527 c -0.448,-0.426 -0.942,-0.793 -1.476,-1.109 l 0.086,-1.598 -3.771,-0.973 -0.7,1.445 c -0.617,0.014 -1.229,0.102 -1.831,0.262 l -1.07,-1.195 -3.354,1.984 0.527,1.514 c -0.428,0.449 -0.793,0.945 -1.108,1.477 l -1.599,-0.088 -0.974,3.773 1.446,0.701 c 0.018,0.613 0.102,1.23 0.262,1.828 l -1.195,1.072 1.982,3.355 1.516,-0.529 c 0.45,0.43 0.948,0.797 1.478,1.11 z m 3.22,-3.442 c -0.969,-0.248 -1.783,-0.859 -2.293,-1.721 -0.508,-0.863 -0.654,-1.867 -0.402,-2.84 0.2,-0.779 0.635,-1.439 1.209,-1.924 0.896,-0.754 2.131,-1.088 3.352,-0.77 0.969,0.248 1.785,0.861 2.293,1.721 0.51,0.863 0.654,1.867 0.402,2.84 -0.517,1.999 -2.563,3.21 -4.561,2.694 z"
                        id="path2428"/>
			</g>
		</g>
        <g
                id="g2486">
			<path
                    fill="#ffffff"
                    d="m 251.075,171.314 c 0,0 1.245,1.092 2.364,2.77 1.119,1.678 5.752,3.805 5.879,6.096 0.126,2.289 -5.701,0.32 -7.887,-0.422 -2.187,-0.748 -2.518,-2.982 -3.84,-3.543 -1.322,-0.559 -2.009,-1.014 -1.906,-2.104 0.103,-1.092 0.832,-2.865 0.832,-2.865 0,0 0.822,0.264 1.306,0.316 0.483,0.053 2.109,0.073 3.252,-0.248 z"
                    id="path2434"/>
            <path
                    fill="#2a94f4"
                    d="m 236.09,109.266 c 0,0 0.838,4.982 1.513,8.271 v 0 c 0.275,1.336 0.521,2.393 0.675,2.727 0.193,0.416 1.767,2.105 3.69,4.088 3.379,3.477 7.84,7.855 7.84,7.855 l 1.745,-3.311 c 0,0 -3.965,-4.646 -6.65,-7.748 -1.244,-1.436 -2.215,-2.537 -2.393,-2.697 -0.562,-0.502 -1.213,-5.455 -2.129,-9.533 -0.918,-4.082 -2.754,-6.334 -2.754,-6.334 z"
                    id="path2436"/>
            <path
                    fill="#eea886"
                    d="m 241.968,124.352 c 3.379,3.477 7.84,7.855 7.84,7.855 l 1.745,-3.311 c 0,0 -3.965,-4.646 -6.65,-7.748 -0.825,0.405 -2.337,1.368 -2.935,3.204 z"
                    id="path2438"/>
            <g
                    id="g2442">
				<path
                        fill="#ffffff"
                        d="m 220.309,169.949 c 0,0 -1.146,1.27 -1.824,2.039 -0.68,0.768 -5.398,4.359 -5.411,6.643 -0.015,2.477 4.036,0.043 5.757,-0.049 1.717,-0.09 3.114,-1.277 3.837,-2.68 0.724,-1.402 2.649,-1.77 2.785,-2.9 0.135,-1.131 -0.892,-3.166 -0.892,-3.166 z"
                        id="path2440"/>
			</g>
            <path
                    fill="#0b4870"
                    d="m 224.338,167.729 0.223,2.107 c 0,0 -3.588,1.562 -4.252,0.113 l 0.155,-1.875 z"
                    id="path2444"/>
            <path
                    fill="#0b4870"
                    d="m 250.881,169.789 0.194,1.525 c 0,0 -2.168,0.766 -4.558,-0.068 l -0.047,-1.357 z"
                    id="path2446"/>
            <path
                    fill="#2a94f4"
                    d="m 220.106,131.533 c -0.124,0.443 22.96,0 22.96,0 0,0 -6.385,-4.648 -6.8,-5.889 -0.413,-1.242 1.627,-8.693 1.892,-11.117 0.215,-1.941 0.747,-10.619 -0.531,-11.943 -1.336,-1.387 -6.148,-2.838 -6.148,-2.838 l -7.017,0.26 c 0,0 -1.159,0.242 -1.986,0.625 -0.827,0.385 -5.562,2.072 -6.33,4.436 -0.769,2.367 4.724,9.971 4.724,9.971 0,0 0.01,0.342 0.026,0.9 v 0 c 0.022,0.75 0.052,1.883 0.081,3.115 0.037,1.594 0.069,3.35 0.069,4.631 0,3.015 -0.816,7.406 -0.94,7.849 z"
                    id="path2448"/>
            <path
                    fill="#cce9ff"
                    d="m 220.106,131.533 c 0,0 -3.141,4.611 -3.185,7.76 -0.043,3.148 1.164,11.881 1.252,13.607 0.088,1.73 1.715,16.145 1.715,16.145 0,0 1.258,1.166 5.025,-0.297 0,0 0.833,-13.668 0.921,-15.131 0.09,-1.465 0.09,-8.203 0.932,-9.18 0.843,-0.975 5.942,-4.035 6.606,-4.611 0.666,-0.578 12.253,2.189 13.469,2.504 3.144,0.816 1.711,6.287 1.015,8.738 -1.163,4.104 -2.181,18.922 -2.181,18.922 0,0 2.239,0.953 5.99,0.148 0,0 7.365,-26.758 7.603,-29.418 0.236,-2.66 0.353,-7.047 -17.8,-10.383 z"
                    id="path2450"/>
            <path
                    fill="#eea886"
                    d="m 229.553,84.5 c 0,0 6.091,-1.375 4.699,6.291 -1.391,7.664 -2.855,8.268 -6.529,6.682 -3.677,-1.586 -3.347,-6.498 -3.533,-8.906 -0.183,-2.409 3.419,-3.983 5.363,-4.067 z"
                    id="path2452"/>
            <path
                    fill="#eea886"
                    d="m 231.165,101.713 c 0,0 -2.698,2.859 -6.961,0.26 0,0 0.952,-6.197 0.452,-9.217 -0.503,-3.018 5.561,4.678 5.561,4.678 -0.078,0.043 -0.132,0.33 -0.145,0.74 -0.01,0.346 0.01,0.781 0.064,1.229 0.126,1.003 0.438,2.064 1.029,2.31 z"
                    id="path2454"/>
            <path
                    fill="#eea886"
                    d="m 226.286,89.775 c -0.08,-0.678 -1.417,-0.924 -1.524,0.09 -0.107,1.012 0.607,2.791 1.115,2.617 0.507,-0.175 0.519,-1.775 0.409,-2.707 z"
                    id="path2456"/>
            <path
                    fill="#0b4870"
                    d="m 224.486,92.5 c 0,0 0.157,-2.414 1.04,-2.49 0.882,-0.074 1.018,0.896 1.018,0.896 l 0.891,0.17 c 0,0 -0.28,-2.117 0.601,-2.488 0.88,-0.369 5.707,1.166 6.414,0.545 0.706,-0.621 2.597,-3.355 1.317,-3.943 -1.278,-0.588 -7.032,-3.465 -9.62,-1.713 0,0 -2.018,-0.23 -2.316,1.398 -0.298,1.628 0.108,6.416 0.655,7.625 z"
                    id="path2458"/>
            <path
                    fill="#a77860"
                    d="m 230.137,99.402 c -4.398,-1.355 -4.729,-4.006 -4.734,-4.047 1.449,2.49 4.67,2.818 4.67,2.818 -0.011,0.347 0.009,0.782 0.064,1.229 z"
                    id="path2460"/>
            <path
                    fill="#2a94f4"
                    d="m 245.708,131.209 c 0,0 -15.942,1.965 -25.602,0.324 l 18.456,-2.307 c 0,0.001 0.11,0.471 7.146,1.983 z"
                    id="path2462"/>
            <path
                    fill="#eea886"
                    d="m 233.784,128.502 1.187,0.6 c 0,0 -0.27,1.887 -0.92,2.459 l -1.332,-0.34 c 0,0 0.277,-2.069 1.065,-2.719 z"
                    id="path2464"/>
            <path
                    fill="#2a94f4"
                    d="m 215.336,124.637 c 0.237,0.277 3.371,1.537 6.912,2.9 v 0 c 4.837,1.863 10.295,3.627 10.295,3.627 l 1.241,-2.662 c 0,0 -5.714,-3.105 -9.575,-5.283 -1.823,-1.029 -3.233,-1.85 -3.434,-2.039 -0.62,-0.592 -0.781,-1.541 -0.324,-3.193 0.455,-1.654 1.508,-9.254 1.625,-10.141 0.119,-0.887 -0.295,-3.252 -2.513,-3.369 -2.217,-0.121 -3.345,0.506 -3.345,0.506 0,0 -0.559,0.232 -0.971,5.613 -0.414,5.381 -0.474,13.39 0.089,14.041 z"
                    id="path2466"/>
            <path
                    fill="#eea886"
                    d="m 222.248,127.537 v 0 c 4.837,1.863 10.471,3.684 10.471,3.684 l 1.065,-2.719 c 0,0 -5.714,-3.105 -9.575,-5.283 0,0 -1.405,0.683 -1.961,4.318 z"
                    id="path2468"/>
            <polygon
                    fill="#f7f7f7"
                    points="256.788,131.045 245.347,136.855 234.127,131.377 "
                    id="polygon2470"/>
            <polygon
                    fill="#d3d3d3"
                    points="234.127,131.377 246.232,135.746 245.347,136.855 234.127,132.508 "
                    id="polygon2472"/>
            <g
                    id="g2476">
				<path
                        fill="#eea886"
                        d="m 234.715,129.145 c 0,0 1.416,-0.221 2.393,-0.449 0.759,-0.176 2.641,0.066 3.12,0.553 0.48,0.486 2.005,3.871 2.292,4.078 0.289,0.207 -0.146,0.686 -0.653,0.445 0,0 -0.466,1.48 -1.612,0.926 -1.147,-0.555 -1.927,-1.766 -2.528,-1.979 -0.601,-0.213 -4.101,-1.289 -4.101,-1.289 0,0 0.186,-2.647 1.089,-2.285 z"
                        id="path2474"/>
			</g>
            <g
                    id="g2480">
				<path
                        fill="#eea886"
                        d="m 239.883,129.027 c 0,0 0.908,0.439 1.146,0.633 0.237,0.197 1.199,0.918 1.434,1.086 0.232,0.172 -0.354,0.652 -2.074,-0.092 -1.719,-0.746 -0.506,-1.627 -0.506,-1.627 z"
                        id="path2478"/>
			</g>
            <polygon
                    fill="#d3d3d3"
                    points="273.816,118.807 267.393,135.766 245.347,136.855 252.087,118.451 "
                    id="polygon2482"/>

            <ellipse
                    transform="matrix(-0.8946,-0.4468,0.4468,-0.8946,436.9802,357.8817)"
                    fill="#f7f7f7"
                    cx="260.68799"
                    cy="127.417"
                    rx="1.8430001"
                    ry="2.6849999"
                    id="ellipse2484"/>
		</g>
        <g
                id="g2644">
			<g
                    id="g2508">
				<g
                        id="g2496">
					<g
                            id="g2494">
						<g
                                id="g2492">
							<g
                                    id="g2490">
								<path
                                        fill="#eea987"
                                        d="m 377.82,243.285 c -0.008,0.008 -0.016,0.008 -0.016,0.008 -0.008,0.016 -0.023,0.031 -0.039,0.047 -0.974,0.848 -2.315,1.193 -2.455,1.383 -0.079,0.109 -0.346,0.328 -0.551,0.494 -0.141,0.107 -0.25,0.188 -0.25,0.188 l -1.932,-1.703 c 0,0 0.377,-0.346 0.629,-0.777 0.172,-0.281 0.283,-0.611 0.203,-0.895 -0.18,-0.611 0.086,-1.293 0.15,-1.576 0.086,-0.377 0.125,-1.592 0.406,-1.521 0.473,0.109 0.361,2.055 0.417,2.471 0.056,0.338 0.933,-0.564 1.467,-0.902 0,0 0.04,-0.031 0.11,-0.078 0.062,-0.039 0.117,-0.062 0.164,-0.07 0.126,-0.025 0.385,0.141 0.675,0.4 0.017,0.016 0.024,0.031 0.04,0.047 0.212,0.188 0.431,0.432 0.627,0.697 0.008,0.008 0.008,0.016 0.016,0.025 0.188,0.258 0.354,0.541 0.439,0.807 0.009,0.008 0.009,0.023 0.016,0.039 0.113,0.344 0.103,0.674 -0.116,0.916 z"
                                        id="path2488"/>
							</g>
						</g>
					</g>
				</g>
                <g
                        id="g2506">
					<g
                            id="g2504">
						<g
                                id="g2502">
							<g
                                    id="g2500">
								<path
                                        fill="#eea987"
                                        d="m 375.854,240.5 c 0,0 3.144,-2.41 3.486,-2.396 0.345,0.018 0.466,0.193 0.181,0.432 -0.285,0.239 -2.97,2.416 -2.97,2.416 0,0 4.199,-2.227 4.485,-2.277 0.165,-0.029 0.291,0.289 0.15,0.432 -0.141,0.141 -4.049,2.598 -4.049,2.598 0,0 3.924,-2.072 4.174,-2.041 0.221,0.025 0.377,0.389 0.096,0.561 -0.279,0.174 -3.815,2.303 -3.815,2.303 0,0 2.952,-1.326 3.149,-1.178 0.119,0.092 0.29,0.293 -0.482,0.613 -0.771,0.318 -2.453,1.336 -2.453,1.336 z"
                                        id="path2498"/>
							</g>
						</g>
					</g>
				</g>
			</g>
            <g
                    id="g2512">
				<path
                        fill="#0b4870"
                        d="m 361.625,241.504 -1.521,-3.326 c -0.008,-0.023 -0.016,-0.047 -0.032,-0.07 -1.073,-2.418 -2.997,-3.242 -4.439,-3.5 l 0.007,-6.121 v -2.525 c 1.405,-2.598 2.143,-5.83 0.525,-8.066 0.832,0.018 2.504,0.172 3.987,1.107 1.553,0.965 2.894,2.785 2.808,6.189 -0.205,7.965 -1.35,9.527 0.008,14.689 0.502,1.914 -0.204,2.148 -1.343,1.623 z"
                        id="path2510"/>
			</g>
            <g
                    id="g2518">
				<g
                        id="g2516">
					<path
                            fill="#0b4870"
                            d="m 333.246,329.955 -0.008,0.008 c -0.009,0.125 -0.031,0.244 -0.07,0.336 -0.174,0.418 -0.307,0.943 -0.432,1.531 -0.471,2.205 -0.793,5.195 -2.205,5.752 -1.789,0.713 -4.724,0.619 -5.107,0 -0.314,-0.512 1.514,-3.256 2.18,-4.215 0,0 -0.008,0 0,-0.008 0.143,-0.203 0.229,-0.32 0.229,-0.32 2.04,-2.174 2.087,-4.213 1.945,-5.211 -0.055,-0.4 -0.141,-0.635 -0.141,-0.635 0,0 0.73,-0.346 1.554,-0.369 0.188,-0.008 0.384,0 0.572,0.031 0.228,0.039 0.44,0.189 0.629,0.416 0.015,0.008 0.015,0.016 0.022,0.023 0.007,0.007 0.017,0.016 0.023,0.031 0.535,0.669 0.872,1.892 0.809,2.63 z"
                            id="path2514"/>
				</g>
			</g>
            <g
                    id="g2526">
				<g
                        id="g2524">
					<g
                            id="g2522">
						<path
                                fill="#eea886"
                                d="m 332.414,327.287 c 0,0 0,0 0,0.008 -0.008,0.023 -0.016,0.055 -0.031,0.102 l -0.008,0.01 v 0.006 c 0,0.008 0,0.008 0,0.008 -0.078,0.283 -0.25,0.973 -0.4,2.088 -0.204,1.592 -0.809,4.252 -1.742,5.17 -0.933,0.918 -3.232,0.596 -3.318,0.244 -0.039,-0.156 0.291,-0.785 0.689,-1.555 0,0 -0.008,0 0,-0.008 0.504,-0.98 1.115,-2.189 1.209,-2.926 0.133,-0.996 0.416,-2.016 0.605,-2.645 0.115,-0.383 0.203,-0.627 0.203,-0.627 0.407,-0.439 1.02,-0.455 1.569,-0.338 0.58,0.119 1.091,0.385 1.201,0.447 0.015,0.008 0.023,0.016 0.023,0.016 z"
                                id="path2520"/>
					</g>
				</g>
			</g>
            <g
                    id="g2532">
				<g
                        id="g2530">
					<path
                            fill="#0b4870"
                            d="m 357.648,329.955 v 0.031 c -0.009,0.117 -0.039,0.229 -0.072,0.312 -0.172,0.426 -0.305,0.967 -0.438,1.57 -0.473,2.197 -0.801,5.156 -2.198,5.713 -1.789,0.713 -4.73,0.619 -5.107,0 -0.384,-0.621 2.307,-4.48 2.307,-4.48 l 0.009,-0.008 c 2.462,-2.645 2.023,-5.092 1.859,-5.713 -0.033,-0.094 -0.049,-0.148 -0.049,-0.148 l 0.01,-0.008 c 0.117,-0.047 1.24,-0.541 2.204,-0.369 0.095,0.016 0.181,0.047 0.267,0.102 0.761,0.432 1.294,2.088 1.208,2.998 z"
                            id="path2528"/>
				</g>
			</g>
            <g
                    id="g2540">
				<g
                        id="g2538">
					<g
                            id="g2536">
						<path
                                fill="#eea886"
                                d="m 356.385,329.508 c -0.086,1.6 -0.809,4.252 -1.742,5.17 -0.941,0.918 -3.24,0.596 -3.326,0.244 -0.041,-0.174 0.361,-0.934 0.823,-1.82 l 0.009,-0.008 c 0.501,-0.967 1.081,-2.072 1.254,-2.746 0.291,-1.082 0.486,-2.543 0.541,-2.98 0.009,-0.088 0.016,-0.135 0.016,-0.135 l 0.01,-0.008 c 0.894,-0.965 2.204,-0.369 2.204,-0.369 0,0 0.022,0.088 0.062,0.26 0.077,0.4 0.211,1.253 0.149,2.392 z"
                                id="path2534"/>
					</g>
				</g>
			</g>
            <g
                    id="g2554">
				<g
                        id="g2552">
					<g
                            id="g2550">
						<path
                                fill="#0b4870"
                                d="m 343.76,259.59 c -0.031,2.033 -0.071,3.986 -0.094,5.604 -0.017,0.971 -0.031,1.818 -0.039,2.486 -0.009,0.078 -0.009,0.156 -0.009,0.227 -0.008,0.621 -0.635,1.027 -1.2,0.801 l -2.777,-1.137 -0.197,-0.08 -0.689,-0.283 c 0,0 0.519,-3.482 1.012,-7.562 0.518,0.062 0.832,0.094 0.832,0.094 -0.016,-0.045 -0.031,-0.109 -0.039,-0.195 0.361,0.016 0.902,0.031 1.475,0.039 0.307,0.008 0.621,0.016 0.926,0.016 0.281,-0.002 0.555,-0.002 0.799,-0.01 z"
                                id="path2542"/>
                        <path
                                fill="#eea886"
                                d="m 343.736,292.105 c -0.039,0.125 -0.087,0.258 -0.133,0.383 -0.479,1.35 -3.807,9.127 -3.807,15.08 0,4.018 -5.939,17.656 -7.359,19.758 -0.007,-0.016 -0.016,-0.023 -0.023,-0.031 0,-0.008 0,-0.008 0,-0.008 0,0 -0.008,-0.008 -0.022,-0.016 -0.188,-0.227 -0.401,-0.377 -0.629,-0.416 -0.188,-0.031 -0.384,-0.039 -0.572,-0.031 -0.55,-0.117 -1.162,-0.102 -1.569,0.338 0,0 -0.088,0.244 -0.203,0.627 0,0 3.609,-17.113 3.498,-17.975 -0.109,-0.855 2.221,-9.949 2.386,-12.359 0.054,-0.84 0.274,-3.084 0.571,-5.789 1.946,0.141 4.795,0.289 7.862,0.439 z"
                                id="path2544"/>
                        <path
                                fill="#eea886"
                                d="m 358.926,292.764 c -0.062,0.832 -0.125,1.701 -0.18,2.621 -0.102,1.719 -0.164,7.18 -0.219,11.141 -0.056,3.838 -1.657,19.279 -2.088,20.432 -0.086,-0.055 -0.172,-0.086 -0.267,-0.102 0,0 -1.311,-0.596 -2.204,0.369 l -0.01,0.008 c 0,0 -0.007,0.047 -0.016,0.135 0,0 -1.192,-15.199 -1.467,-18.525 -0.273,-3.336 0.109,-9.941 -0.393,-11.896 -0.141,-0.58 -0.344,-2.299 -0.564,-4.488 3.078,0.133 5.792,0.242 7.408,0.305 z"
                                id="path2546"/>
                        <path
                                fill="#313657"
                                d="m 349.653,256.02 c 0.446,3.139 0.987,6.441 1.442,9.07 -2.503,0.016 -5.287,0.064 -7.43,0.104 0.022,-1.617 0.062,-3.57 0.094,-5.604 -0.244,0.008 -0.518,0.008 -0.801,0.008 0.252,-0.322 0.527,-0.658 0.816,-0.98 0.268,-0.314 0.549,-0.619 0.848,-0.918 0.07,-0.078 0.149,-0.148 0.228,-0.227 0.723,-0.699 1.515,-1.328 2.354,-1.783 0.203,-0.125 0.416,-0.227 0.627,-0.312 0.541,-0.244 1.106,-0.408 1.672,-0.473 0.055,0 0.102,-0.006 0.149,-0.006 0.274,-0.016 0.54,-0.016 0.815,0.006 0.439,0.049 0.887,0.158 1.333,0.348 l -2.134,0.729 c -0.006,0.014 -0.006,0.022 -0.013,0.038 z"
                                id="path2548"/>
					</g>
				</g>
			</g>
            <g
                    id="g2560">
				<g
                        id="g2558">
					<polygon
                            fill="#0b4870"
                            points="332.732,334.061 332.732,330.887 333.244,329.955 333.244,334.061 "
                            id="polygon2556"/>
				</g>
			</g>
            <g
                    id="g2566">
				<g
                        id="g2564">
					<polygon
                            fill="#0b4870"
                            points="357.141,334.061 357.141,330.887 357.651,329.955 357.651,334.061 "
                            id="polygon2562"/>
				</g>
			</g>
            <g
                    id="g2570">
				<path
                        fill="#eea886"
                        d="m 353.506,228.793 c -0.166,1.146 -0.393,3.139 -0.283,4.756 0.016,0.305 0.046,0.596 0.094,0.863 0,0.008 0,0.008 0,0.016 0.008,0.062 0.023,0.125 0.031,0.188 0.047,0.188 0.095,0.369 0.148,0.527 l -0.493,1.207 c -0.103,0.016 -0.22,0.031 -0.337,0.039 -0.229,0.008 -0.473,0.008 -0.738,0 -0.291,-0.016 -0.604,-0.047 -0.919,-0.078 h -0.007 c -0.031,-0.008 -0.062,-0.008 -0.094,-0.016 -0.141,-0.016 -0.291,-0.039 -0.432,-0.055 h -0.008 c -0.989,-0.141 -1.938,-0.346 -2.456,-0.463 h -0.009 c -0.242,-0.055 -0.392,-0.096 -0.392,-0.096 0,0 0.259,-0.611 0.581,-1.506 0.023,-0.078 0.055,-0.164 0.086,-0.252 l 0.212,-0.635 v -0.008 l 0.007,-0.008 c 0.088,-0.281 0.182,-0.58 0.268,-0.887 0.023,-0.078 0.048,-0.164 0.062,-0.25 0.063,-0.229 0.119,-0.455 0.166,-0.684 0.021,-0.133 0.055,-0.258 0.077,-0.385 0.173,-0.965 0.221,-1.883 0,-2.543 -0.524,-1.553 2.103,-1.207 3.595,-0.893 0.572,0.117 0.98,0.234 0.98,0.234 0,0 -0.061,0.365 -0.139,0.929 z"
                        id="path2568"/>
			</g>
            <g
                    id="g2574">
				<path
                        fill="#f2f2f2"
                        d="m 353.348,234.615 c -0.102,-0.008 -0.18,-0.016 -0.234,-0.023 -0.047,0 -0.072,0 -0.072,0 l -0.133,-0.008 -0.242,-0.023 -0.299,-0.023 -0.164,-0.016 -4.002,-0.346 c 0,0 0,0 -0.008,0 -0.031,0.008 -0.134,0.023 -0.299,0.055 -0.062,0.008 -0.126,0.023 -0.204,0.039 -0.102,0.016 -0.219,0.039 -0.353,0.062 -1.152,0.229 -3.279,0.684 -5.053,1.295 -1.82,0.629 -4.041,3.25 -5.187,4.738 -0.486,0.629 -0.784,1.053 -0.784,1.053 0,0 0.939,2.213 2.062,4.936 0.707,1.734 1.491,3.672 2.15,5.375 0,0 0,0 0,0.008 0.126,0.322 0.243,0.619 0.353,0.918 0.448,1.186 0.809,2.205 0.997,2.871 0.102,0.361 0.164,0.777 0.196,1.248 0.007,0.008 0.007,0.023 0.007,0.031 0.025,0.307 0.032,0.627 0.032,0.965 0,0.572 -0.032,1.186 -0.079,1.812 0.307,0.008 0.621,0.016 0.926,0.016 0.283,0 0.557,0 0.801,-0.008 -0.031,2.033 -0.071,3.986 -0.094,5.604 2.143,-0.039 4.927,-0.088 7.43,-0.104 -0.455,-2.629 -0.996,-5.932 -1.442,-9.07 0.007,-0.016 0.007,-0.023 0.015,-0.039 l 2.134,-0.729 0.644,-0.221 v -1.027 l -3.114,-0.361 c -0.29,-2.205 -0.503,-4.199 -0.565,-5.658 -0.125,-2.895 0.777,-6.025 1.781,-8.551 l 0.871,0.777 1.248,-3.037 0.337,-0.824 0.493,-1.207 0.205,-0.496 c -0.134,-0.016 -0.26,-0.024 -0.354,-0.032 z"
                        id="path2572"/>
			</g>
            <g
                    id="g2578">
				<path
                        fill="#eea886"
                        d="m 353.313,234.424 -5.703,4.648 0.589,-4.896 c 0,0 3.324,-0.717 5.114,0.248 z"
                        id="path2576"/>
			</g>
            <g
                    id="g2584">
				<path
                        fill="#494f80"
                        d="m 352.445,254.004 v 1.027 l -0.644,0.221 -2.134,0.729 c -0.008,0.016 -0.008,0.023 -0.015,0.039 v -0.039 c -0.024,-0.164 -0.048,-0.322 -0.071,-0.479 -0.009,-0.062 -0.016,-0.125 -0.023,-0.18 -0.023,-0.127 -0.039,-0.252 -0.055,-0.379 v -0.039 c -0.063,-0.43 -0.117,-0.846 -0.173,-1.262 z"
                        id="path2580"/>
                <path
                        fill="#494f80"
                        d="m 353.764,234.646 h -0.062 l -0.205,0.496 -0.493,1.207 -0.337,0.824 -1.248,3.037 -0.871,-0.777 c 0.471,-1.17 0.966,-2.213 1.381,-3.045 0.291,-0.58 0.549,-1.051 0.738,-1.396 0.015,-0.023 0.023,-0.039 0.039,-0.062 v -0.008 c 0.007,0 0.007,-0.008 0.007,-0.008 0.079,-0.133 0.142,-0.244 0.196,-0.33 0.086,-0.148 0.133,-0.227 0.133,-0.227 0.072,0.016 0.133,0.023 0.205,0.039 h 0.008 c 0.023,0.006 0.047,0.006 0.062,0.016 0.148,0.029 0.299,0.062 0.439,0.102 0,0.047 0,0.093 0.008,0.132 z"
                        id="path2582"/>
			</g>
            <g
                    id="g2588">
				<path
                        fill="#0b4870"
                        d="m 347.879,234.357 c 0,0 -0.769,1.734 -1.625,4.135 -1.059,2.957 -2.243,6.912 -2.306,9.861 -0.024,1.162 -0.056,2.793 -0.086,4.646 -0.017,1.035 -0.031,2.133 -0.056,3.264 0,0.172 0,0.344 -0.008,0.518 -0.008,0.393 -0.008,0.793 -0.016,1.184 0,0.008 0,0.008 0,0.018 -0.008,0.203 -0.008,0.422 -0.008,0.635 -0.008,0.33 -0.016,0.65 -0.016,0.973 -0.244,0.008 -0.518,0.008 -0.801,0.008 -0.305,0 -0.619,-0.008 -0.926,-0.016 -0.572,-0.008 -1.113,-0.023 -1.475,-0.039 0.008,0.086 0.023,0.15 0.039,0.195 0,0 -0.314,-0.031 -0.832,-0.094 0.087,-0.736 0.174,-1.506 0.26,-2.268 0.007,-0.086 0.016,-0.18 0.022,-0.266 0.071,-0.605 0.134,-1.209 0.188,-1.807 0.095,-0.932 0.173,-1.842 0.229,-2.697 0.023,-0.299 0.047,-0.588 0.062,-0.871 0,-0.008 0,-0.008 0,-0.008 0.055,-0.904 0.086,-1.727 0.086,-2.426 l -2.236,-2.949 -3.036,-4.01 c 0,0 0.651,-0.879 1.569,-2.002 1.357,-1.662 3.303,-3.859 4.566,-4.486 1.758,-0.879 4.936,-1.459 5.932,-1.625 l 0.008,-0.008 c 0.196,-0.031 0.307,-0.047 0.307,-0.047 l -0.032,0.094 -0.062,0.172 c 0.054,-0.021 0.101,-0.045 0.164,-0.053 h 0.008 c 0.026,-0.015 0.057,-0.025 0.081,-0.031 z"
                        id="path2586"/>
			</g>
            <g
                    id="g2592">
				<path
                        fill="#eea886"
                        d="m 349.699,255.816 c -0.007,0.055 -0.016,0.109 -0.031,0.164 -0.008,0.016 -0.008,0.023 -0.015,0.039 -0.519,1.695 -4.347,3.359 -4.944,3.508 -0.148,0.039 -0.502,0.062 -0.949,0.062 -0.244,0.008 -0.518,0.008 -0.801,0.008 -0.305,0 -0.619,-0.008 -0.926,-0.016 -0.572,-0.008 -1.113,-0.023 -1.475,-0.039 -0.275,-0.008 -0.447,-0.016 -0.447,-0.016 V 257.4 h 0.016 c 0.041,-0.016 0.204,-0.07 0.447,-0.156 0.346,-0.111 0.863,-0.275 1.476,-0.463 0.007,0 0.017,-0.008 0.023,-0.008 0.337,-0.102 0.714,-0.211 1.098,-0.33 0.212,-0.055 0.423,-0.117 0.636,-0.18 1.381,-0.377 2.881,-0.746 4.025,-0.887 0.181,-0.031 0.346,-0.047 0.502,-0.055 0.463,-0.039 0.832,-0.018 1.067,0.07 0.07,0.031 0.134,0.062 0.181,0.109 0.094,0.074 0.141,0.174 0.117,0.316 z"
                        id="path2590"/>
			</g>
            <g
                    id="g2596">
				<polygon
                        fill="#f7f7f7"
                        points="336.314,252.121 340.465,252.607 340.88,252.654 342.19,252.803 343.862,253 349.331,253.643 352.445,254.004 350.469,254.904 349.559,255.322 349.401,255.393 344.851,257.473 343.783,257.965 343.604,258.043 342.08,256.805 342.05,256.781 340.236,255.305 "
                        id="polygon2594"/>
			</g>
            <g
                    id="g2600">
				<polygon
                        fill="#d3d3d3"
                        points="343.783,257.982 343.604,258.043 343.305,256.938 343.799,256.781 347.205,255.689 348.334,255.322 349.504,254.943 349.653,254.898 352.445,254.004 352.445,255.031 351.802,255.252 349.668,255.98 349.653,255.98 344.623,257.699 "
                        id="polygon2598"/>
			</g>
            <g
                    id="g2604">
				<polygon
                        fill="#f2f2f2"
                        points="343.949,239.072 347.406,234.229 348.496,233.271 345.433,238.137 "
                        id="polygon2602"/>
			</g>
            <g
                    id="g2608">
				<polygon
                        fill="#d6c5be"
                        points="348.199,234.176 348.496,233.271 345.433,238.137 347.61,239.072 "
                        id="polygon2606"/>
			</g>
            <g
                    id="g2612">
				<path
                        fill="#0b4870"
                        d="m 340.559,259.543 c 0.008,0.086 0.023,0.15 0.039,0.195 0,0 -0.314,-0.031 -0.832,-0.094 -2.408,-0.273 -9.281,-1.145 -10.043,-2.291 -0.455,-0.689 -0.683,-1.436 -0.785,-2.023 v -0.008 c -0.117,-0.613 -0.108,-1.053 -0.108,-1.053 l 11.219,2.842 0.526,0.133 0.023,0.008 c 0,0 -0.009,0.086 -0.016,0.234 -0.032,0.473 -0.094,1.547 -0.023,2.057 z"
                        id="path2610"/>
			</g>
            <g
                    id="g2616">
				<polygon
                        fill="#d3d3d3"
                        points="321.008,238.666 325.911,254.768 343.604,258.047 338.896,240.555 "
                        id="polygon2614"/>
			</g>
            <g
                    id="g2622">
				<path
                        fill="#0b4870"
                        d="m 375.176,245.826 c 0,0 -4.942,4.348 -7.57,6.922 0,0 -3.045,3.279 -3.963,3.279 -0.04,0 -0.078,-0.008 -0.11,-0.023 -0.675,-0.291 -2.981,-3.561 -4.989,-6.967 -0.094,0.266 -0.205,0.58 -0.314,0.926 -0.102,0.299 -0.203,0.627 -0.314,0.98 -0.274,0.91 -0.572,1.953 -0.84,3.061 -0.784,3.256 3.179,13.432 3.179,13.432 l -0.911,0.307 -0.141,0.047 -5.642,1.916 c -0.823,0.273 -1.711,-0.244 -1.86,-1.107 -0.03,-0.195 -0.069,-0.408 -0.108,-0.635 -0.032,-0.166 -0.056,-0.33 -0.087,-0.512 -0.008,-0.039 -0.016,-0.086 -0.023,-0.125 -0.055,-0.305 -0.117,-0.643 -0.172,-0.988 -0.033,-0.15 -0.056,-0.299 -0.079,-0.455 -0.048,-0.26 -0.087,-0.52 -0.134,-0.793 -0.455,-2.629 -0.996,-5.932 -1.442,-9.07 0.007,-0.016 0.007,-0.023 0.015,-0.039 l 2.134,-0.729 0.644,-0.221 v -1.027 l -3.114,-0.361 c -0.29,-2.205 -0.503,-4.199 -0.565,-5.658 -0.125,-2.895 0.777,-6.025 1.781,-8.551 l 0.871,0.777 1.248,-3.037 0.337,-0.824 0.493,-1.207 0.205,-0.496 h 0.062 c -0.008,-0.039 -0.008,-0.086 -0.008,-0.133 0,0 0.809,-0.111 1.876,0.094 1.442,0.258 3.366,1.082 4.439,3.5 0.017,0.023 0.024,0.047 0.032,0.07 l 1.521,3.326 2.613,5.713 c 0,0 0.746,1.303 1.122,1.695 0,0 0.942,-0.535 1.429,-0.865 0.901,-0.736 1.428,-1.012 2.51,-1.943 1.68,-1.445 3.838,-3.281 3.838,-3.281 l 0.07,0.102 c -0.252,0.432 -0.629,0.777 -0.629,0.777 l 1.932,1.703 c 0,0 0.109,-0.08 0.25,-0.188 z"
                        id="path2618"/>
                <path
                        fill="#0b4870"
                        d="m 374.76,245.217 c -0.141,0.107 -0.25,0.188 -0.25,0.188 l -1.932,-1.703 c 0,0 0.377,-0.346 0.629,-0.777 z"
                        id="path2620"/>
			</g>
            <g
                    id="g2626">
				<path
                        fill="#eea886"
                        d="m 354.281,228.002 c -0.251,0.289 -0.509,0.549 -0.775,0.791 -0.447,0.4 -0.912,0.746 -1.383,1.029 0,0 0,0.008 -0.014,0.016 -0.017,0.008 -0.033,0.016 -0.056,0.029 -0.368,0.221 -0.737,0.41 -1.099,0.566 -0.031,0.023 -0.062,0.031 -0.094,0.039 -0.217,0.09 -0.434,0.172 -0.637,0.244 -0.175,0.062 -0.346,0.119 -0.516,0.17 -0.246,0.076 -0.445,0.131 -0.551,0.158 -0.055,0.018 -0.087,0.023 -0.087,0.023 -1.114,0.26 -2.024,0.291 -2.472,0.252 -1.191,-0.111 -1.898,-3.625 -1.898,-3.625 0,0 -0.996,-0.314 -1.225,-0.494 -0.227,-0.18 1.068,-3.17 0.863,-4.262 -0.203,-1.09 -0.203,-2.447 -0.203,-2.447 0.078,-0.33 0.18,-0.643 0.291,-0.934 1.602,1.625 6.86,6.836 9.856,8.445 z"
                        id="path2624"/>
			</g>
            <g
                    id="g2630">
				<polygon
                        fill="#d6c5be"
                        points="347.61,239.072 353.21,233.521 349.26,238.283 "
                        id="polygon2628"/>
			</g>
            <g
                    id="g2634">
				<polygon
                        fill="#f2f2f2"
                        points="350.908,236.295 352.367,234.537 352.666,234.176 352.673,234.168 353.207,233.523 353.223,233.549 353.756,234.514 353.701,234.646 353.496,235.143 353.003,236.35 352.666,237.174 351.418,240.211 350.547,239.434 349.26,238.281 350.656,236.592 350.664,236.584 "
                        id="polygon2632"/>
			</g>
            <g
                    id="g2638">
				<path
                        fill="#a77860"
                        d="m 352.127,229.822 c -0.026,0.041 -0.883,1.373 -3.296,2.316 0.058,-0.229 0.112,-0.459 0.161,-0.688 0.026,-0.129 0.053,-0.258 0.076,-0.387 0,0.001 1.996,-0.487 3.059,-1.241 z"
                        id="path2636"/>
			</g>
            <g
                    id="g2642">
				
					<ellipse
                            transform="matrix(0.8831,-0.4692,0.4692,0.8831,-77.7232,184.7975)"
                            fill="#f7f7f7"
                            cx="331.95099"
                            cy="248.35699"
                            rx="1.041"
                            ry="1.92"
                            id="ellipse2640"/>
			</g>
		</g>
        <g
                id="g2698">
			<path
                    fill="#fcd2b1"
                    d="m 180.144,279.893 c 0,0 1.106,0.223 1.636,0.238 0.529,0.018 2.973,-1.092 3.758,-0.986 0.781,0.105 5.886,2.273 6.117,2.434 0.23,0.158 -0.109,0.506 -0.109,0.506 l -11.719,0.141 z"
                    id="path2646"/>

            <rect
                    x="176.19"
                    y="282.056"
                    transform="matrix(1,-0.0075,0.0075,1,-2.1213,1.4054)"
                    fill="#d3d3d3"
                    width="19.490999"
                    height="1.785"
                    id="rect2648"/>

            <rect
                    x="187.944"
                    y="273.29199"
                    transform="matrix(0.2924,-0.9563,0.9563,0.2924,-122.3199,383.0551)"
                    fill="#d3d3d3"
                    width="19.493"
                    height="1.786"
                    id="rect2650"/>
            <g
                    id="g2654">
				<path
                        fill="#d3d3d3"
                        d="m 160.094,319.836 -0.751,1.627 c 0,0 -3.167,-1.18 -3.184,-1.221 -0.016,-0.039 0.872,-2.258 0.872,-2.258 z"
                        id="path2652"/>
			</g>
            <g
                    id="g2658">
				<path
                        fill="#d3d3d3"
                        d="m 187.212,319.801 0.874,2.559 c 0,0 -3.473,0.768 -3.979,0.727 -0.044,-0.004 -0.656,-2.898 -0.656,-2.898 z"
                        id="path2656"/>
			</g>
            <path
                    fill="#0b4870"
                    d="m 183.72,322.34 c 0,0 2.427,-0.66 2.5,-0.766 0.071,-0.105 0.963,-0.707 1.422,-0.629 0.459,0.078 0.5,0.625 0.959,0.738 0.46,0.111 4.007,1.246 4.499,1.537 0.492,0.289 4.746,-0.742 5.197,-0.133 0.451,0.607 -1.015,2.381 -4.703,2.936 -3.688,0.553 -7.637,2.199 -8.52,1.975 -0.885,-0.225 -1.489,-4.674 -1.354,-5.658 z"
                    id="path2660"/>
            <path
                    fill="#0b4870"
                    d="m 155.91,319.809 c 0,0 2.251,0.961 2.368,0.924 0.12,-0.037 1.162,0.041 1.466,0.377 0.305,0.336 0.004,0.779 0.287,1.143 0.281,0.361 1.887,2.484 2.355,2.975 0.384,0.4 4.633,1.285 5.309,1.99 0.509,0.533 -2.231,2.15 -5.814,1.135 -3.49,-0.99 -7.811,-2.707 -8.348,-3.408 -0.539,-0.707 1.682,-4.466 2.377,-5.136 z"
                    id="path2662"/>
            <g
                    id="g2666">
				<path
                        fill="#0e538c"
                        d="m 158.219,287.896 c 0,0 9.898,4.402 11.995,5.906 2.099,1.504 6.69,4.277 6.843,4.955 0.153,0.678 1.062,0.018 -0.566,3.406 -1.628,3.389 -9.329,11.543 -10.051,12.43 -0.754,0.926 -6.096,6.463 -6.096,6.463 l -4.018,-3.025 c 0,0 7.725,-11.359 8.843,-13.029 1.118,-1.67 1.623,-1.916 0.961,-2.656 -0.661,-0.736 -3.302,-0.727 -16.896,-6.357 -1.359,-0.562 -5.15,-1.865 -5.65,-3.689 -0.901,-3.297 -0.127,-7.475 3.526,-9.311 3.656,-1.839 11.109,4.907 11.109,4.907 z"
                        id="path2664"/>
			</g>
            <g
                    id="g2670">
				<path
                        fill="#fcd2b1"
                        d="m 162.926,256.031 c -0.087,0.078 -0.182,0.246 -0.281,0.477 -0.142,0.332 -0.292,0.793 -0.438,1.303 -0.448,1.57 -0.856,3.584 -0.856,3.584 0,0 -5.665,-4.721 -4.864,-5.018 0.801,-0.295 1.394,-1.676 1.394,-1.676 0,0 5.641,0.803 5.045,1.33 z"
                        id="path2668"/>
			</g>
            <g
                    id="g2674">
				<path
                        fill="#0e538c"
                        d="m 158.062,286.115 c 0,0 10.227,2.406 12.756,3.215 2.527,0.807 6.879,2.23 8.047,2.896 0.621,0.355 1.57,0.885 2.705,4.58 1.289,4.189 4.227,15.971 4.894,17.807 0.418,1.152 1.622,5.686 1.622,5.686 l -5.225,0.906 c 0,0 -6.223,-12.529 -6.728,-15.867 -0.849,-5.623 -3.029,-5.652 -3.909,-6.166 -0.882,-0.51 -5.121,0.449 -20.202,-0.754 -1.507,-0.119 -5.628,-0.193 -6.694,-1.82 -1.928,-2.939 -3.873,-6.277 -0.88,-9.232 2.993,-2.954 13.614,-1.251 13.614,-1.251 z"
                        id="path2672"/>
			</g>
            <g
                    id="g2678">
				<path
                        fill="#fcd2b1"
                        d="m 164.923,244.199 c 0,0 1.771,3.057 1.366,3.889 -0.402,0.832 1.85,2.848 1.479,3.275 -0.369,0.426 -1.131,0.943 -1.119,1.068 0.013,0.123 -0.654,4.107 -1.523,4.195 -0.866,0.09 -6.805,-0.221 -7.297,-2.074 -0.492,-1.859 -1.941,-5.926 -2.281,-6.684 -0.343,-0.753 3.081,-6.589 9.375,-3.669 z"
                        id="path2676"/>
			</g>
            <g
                    id="g2682">
				<path
                        fill="#0b4870"
                        d="m 157.603,243.607 c -0.495,0.367 -0.894,0.756 -1.214,1.154 -0.389,0.182 -2.684,1.322 -2.208,2.555 0.644,1.66 3.24,6.104 3.458,6.566 0.029,0.062 0.029,-0.055 0.008,-0.303 0.16,-1.57 2.092,-3.328 2.092,-3.328 l 1.029,-0.467 c -0.537,-0.998 -0.325,-1.932 -0.325,-1.932 1.167,-1.25 5.042,-2.596 5.042,-2.596 -0.001,-10.772 -5.285,-3.574 -7.882,-1.649 z"
                        id="path2680"/>
			</g>
            <g
                    id="g2686">
				<path
                        fill="#fcd2b1"
                        d="m 159.357,248.953 c -0.275,-0.42 -1.721,-0.352 -1.512,0.883 0.213,1.232 1.986,2.223 2.373,1.672 0.387,-0.549 -0.57,-2.112 -0.861,-2.555 z"
                        id="path2684"/>
			</g>
            <path
                    fill="#ffbe55"
                    d="m 156.486,256.377 c 0,0 -7.176,4.182 -8.795,11.484 -1.62,7.301 -4.547,20.123 -4.6,21.643 0,0 9.711,-4.674 14.971,-3.389 0,0 3.312,-11.896 5.055,-14.709 1.742,-2.811 -0.848,-9.416 -0.848,-9.416 0,0 -2.474,-3.965 -5.783,-5.613 z"
                    id="path2688"/>
            <path
                    fill="#997761"
                    d="m 162.645,256.508 c -0.142,0.332 -0.292,0.793 -0.438,1.303 -0.848,-0.354 -2.466,-1.846 -2.516,-1.893 0.676,0.262 2.954,0.59 2.954,0.59 z"
                    id="path2690"/>
            <path
                    fill="#fcd2b1"
                    d="m 218.932,283.76 h -5.377 -17.894 -20.872 c -0.667,0 -1.208,0.652 -1.208,1.457 v 0.865 h 17.474 23.71 5.711 v -0.865 c 0,-0.805 -0.692,-1.457 -1.544,-1.457 z"
                    id="path2692"/>
            <g
                    id="g2696">
				<path
                        fill="#ffbe55"
                        d="m 159.635,262.033 c 0,0 1.709,2.422 2.766,4.254 1.197,2.078 2.375,4.131 2.635,4.594 0.528,0.938 2.408,1.439 3.24,1.797 0.767,0.328 13.51,7.148 13.672,7.135 0.163,-0.014 -1.373,2.543 -1.373,2.543 0,0 -17.695,-5.074 -18.491,-5.803 -0.796,-0.727 -3.157,-4.035 -4.123,-5.398 -0.92,-1.299 -2.331,-3.428 -3.078,-4.346 -0.839,-1.025 -2.593,-4.537 -0.362,-6.287 2.851,-2.239 4.428,0.482 5.114,1.511 z"
                        id="path2694"/>
			</g>
		</g>
        <rect
                x="177.304"
                y="286.082"
                fill="#0b4870"
                width="1.477"
                height="44.936001"
                id="rect2700"/>
        <rect
                x="216.13699"
                y="286.082"
                fill="#0b4870"
                width="1.479"
                height="44.936001"
                id="rect2702"/>
        <path
                fill="#ffbe55"
                d="m 360.488,292.826 c 0,0 -0.572,-0.023 -1.562,-0.062 -1.616,-0.062 -4.33,-0.172 -7.406,-0.307 -2.487,-0.102 -5.218,-0.227 -7.783,-0.352 -3.067,-0.15 -5.916,-0.299 -7.863,-0.439 -1.615,-0.111 -2.619,-0.213 -2.619,-0.291 0.408,-3.648 2.941,-12.797 4.817,-19.23 0.534,-1.838 1.013,-3.453 1.372,-4.654 l 0.197,0.08 2.777,1.137 c 0.565,0.227 1.192,-0.18 1.2,-0.801 0,-0.07 0,-0.148 0.009,-0.227 0.008,-0.668 0.022,-1.516 0.039,-2.486 2.143,-0.039 4.927,-0.088 7.43,-0.104 0.047,0.273 0.086,0.533 0.134,0.793 0.023,0.156 0.046,0.305 0.079,0.455 0.055,0.346 0.117,0.684 0.172,0.988 0.008,0.039 0.016,0.086 0.023,0.125 0.031,0.182 0.055,0.346 0.087,0.512 0.039,0.227 0.078,0.439 0.108,0.635 0.149,0.863 1.037,1.381 1.86,1.107 l 5.642,-1.916 0.141,-0.047 c 4.535,8.145 1.146,25.084 1.146,25.084 z"
                id="path2704"/>
        <path
                fill="#0b4870"
                d="m 355.639,225.961 c -0.195,0.377 -0.407,0.738 -0.635,1.076 -0.229,0.344 -0.472,0.666 -0.723,0.965 -2.996,-1.609 -8.254,-6.82 -9.854,-8.443 1.481,-4.025 5.311,-4.402 7.053,-4.127 2.361,0.393 3.844,1.287 4.684,2.463 1.617,2.236 0.88,5.468 -0.525,8.066 z"
                id="path2706"/>
	</g>
</g>
</svg>
