<svg xmlns="http://www.w3.org/2000/svg" xmlns:xlink="http://www.w3.org/1999/xlink" width="400" zoomAndPan="magnify" viewBox="0 0 300 299.999988" height="400" preserveAspectRatio="xMidYMid meet" version="1.0"><defs><clipPath id="id1"><path d="M 82 25.132812 L 218 25.132812 L 218 132 L 82 132 Z M 82 25.132812 " clip-rule="nonzero"/></clipPath><clipPath id="id2"><path d="M 59 125 L 241 125 L 241 274.882812 L 59 274.882812 Z M 59 125 " clip-rule="nonzero"/></clipPath></defs><g clip-path="url(#id1)"><path fill="#383536" d="M 99.117188 131.859375 L 99.117188 75.445312 C 99.117188 66.496094 99.117188 43.503906 143.507812 43.503906 L 154.203125 43.503906 C 197.769531 43.503906 201.054688 66.496094 201.054688 75.445312 L 201.054688 131.859375 L 217.6875 131.859375 L 217.6875 66.976562 C 217.6875 55.261719 213.328125 25.1875 155.539062 25.1875 L 141.371094 25.1875 C 82.488281 25.1875 82.488281 55.261719 82.488281 66.976562 L 82.488281 131.859375 L 99.117188 131.859375 " fill-opacity="1" fill-rule="nonzero"/></g><g clip-path="url(#id2)"><path fill="#f8a62b" d="M 59.492188 125.242188 C 59.460938 125.667969 59.417969 126.085938 59.417969 126.511719 L 59.417969 253.550781 C 59.417969 265.367188 69.65625 274.9375 82.269531 274.9375 L 217.90625 274.9375 C 230.53125 274.9375 240.757812 265.367188 240.757812 253.550781 L 240.757812 126.511719 C 240.757812 126.085938 240.710938 125.667969 240.691406 125.242188 L 59.492188 125.242188 " fill-opacity="1" fill-rule="nonzero"/></g><path fill="#fbca5d" d="M 211.050781 269.46875 L 89.503906 269.46875 C 81.796875 269.46875 75.097656 265.488281 71.605469 259.601562 C 79.160156 261.296875 87.152344 261.996094 95.121094 261.996094 C 109.070312 261.996094 122.976562 259.84375 134.429688 256.964844 C 154.433594 251.964844 174.296875 242.371094 189.753906 228.664062 C 207.886719 212.574219 215.058594 190.289062 222.867188 168.125 C 226.589844 157.535156 229.863281 146.554688 230.683594 135.316406 L 231.472656 135.316406 C 231.492188 135.699219 231.527344 136.074219 231.527344 136.457031 L 231.527344 250.304688 C 231.527344 260.894531 222.363281 269.46875 211.050781 269.46875 " fill-opacity="1" fill-rule="nonzero"/><path fill="#383536" d="M 169.566406 182.894531 C 169.566406 172.152344 160.839844 163.445312 150.085938 163.445312 C 139.335938 163.445312 130.621094 172.152344 130.621094 182.894531 C 130.621094 191.25 135.898438 198.363281 143.289062 201.121094 L 143.289062 229.957031 C 143.289062 233.695312 146.34375 236.738281 150.085938 236.738281 C 153.84375 236.738281 156.875 233.695312 156.875 229.957031 L 156.875 201.121094 C 164.277344 198.363281 169.566406 191.25 169.566406 182.894531 " fill-opacity="1" fill-rule="nonzero"/><path fill="#fbca5d" d="M 143.003906 239.660156 C 138.972656 239.660156 135.722656 236.386719 135.722656 232.351562 L 135.722656 201.339844 C 127.785156 198.375 122.132812 190.738281 122.132812 181.746094 C 122.132812 170.191406 131.472656 160.828125 143.003906 160.828125 C 143.726562 160.828125 144.449219 160.863281 145.148438 160.9375 C 134.636719 162.019531 126.4375 170.925781 126.4375 181.746094 C 126.4375 190.738281 132.085938 198.375 140.023438 201.339844 L 140.023438 232.351562 C 140.023438 235.632812 142.179688 238.414062 145.148438 239.332031 C 144.46875 239.539062 143.746094 239.660156 143.003906 239.660156 " fill-opacity="1" fill-rule="nonzero"/><path fill="#656263" d="M 212.289062 120.886719 L 212.136719 120.722656 C 212.136719 120.722656 211.960938 115.582031 211.707031 107.859375 C 211.445312 100.148438 211.238281 89.851562 210.984375 79.558594 C 210.910156 76.988281 210.832031 74.417969 210.753906 71.878906 C 210.722656 70.621094 210.667969 69.363281 210.644531 68.117188 C 210.636719 67.492188 210.625 66.878906 210.613281 66.265625 C 210.613281 65.644531 210.589844 65.054688 210.546875 64.507812 C 210.535156 62.242188 210.066406 60.097656 209.605469 58.0625 C 209.308594 57.066406 209.046875 56.082031 208.664062 55.164062 C 208.347656 54.222656 207.929688 53.359375 207.558594 52.503906 C 206.738281 50.84375 205.917969 49.332031 205.0625 48.054688 C 204.25 46.75 203.441406 45.679688 202.773438 44.78125 C 201.40625 43.019531 200.519531 42.089844 200.519531 42.089844 L 200.519531 41.851562 L 200.714844 41.828125 C 200.714844 41.828125 201.863281 42.484375 203.628906 43.972656 C 204.492188 44.726562 205.523438 45.679688 206.59375 46.894531 C 207.679688 48.085938 208.785156 49.539062 209.859375 51.246094 C 210.910156 52.964844 211.894531 54.933594 212.648438 57.144531 C 212.859375 57.691406 212.988281 58.28125 213.152344 58.851562 C 213.316406 59.429688 213.472656 60.019531 213.558594 60.632812 C 213.65625 61.246094 213.753906 61.859375 213.855469 62.480469 C 213.886719 63.117188 213.929688 63.75 213.964844 64.398438 C 213.996094 65.042969 213.996094 65.664062 213.976562 66.265625 C 213.964844 66.878906 213.953125 67.492188 213.941406 68.117188 C 213.929688 69.363281 213.875 70.621094 213.832031 71.878906 C 213.753906 74.417969 213.691406 76.988281 213.613281 79.558594 C 213.351562 89.851562 213.140625 100.148438 212.878906 107.859375 C 212.628906 115.582031 212.464844 120.722656 212.464844 120.722656 L 212.289062 120.886719 " fill-opacity="1" fill-rule="nonzero"/><path fill="#656263" d="M 94.671875 120.605469 L 94.519531 120.460938 C 94.519531 120.460938 94.3125 117.277344 94.058594 112.519531 C 93.765625 107.761719 93.523438 101.417969 93.238281 95.070312 C 93.152344 93.484375 93.0625 91.898438 92.988281 90.335938 C 92.890625 88.769531 92.8125 87.238281 92.789062 85.75 C 92.789062 84.261719 92.800781 82.828125 92.890625 81.460938 C 92.945312 80.09375 93.03125 78.804688 93.140625 77.621094 C 93.523438 72.851562 94.246094 69.679688 94.246094 69.679688 L 94.453125 69.550781 L 94.574219 69.667969 C 94.574219 69.667969 95.332031 72.84375 95.769531 77.601562 C 95.890625 78.792969 95.988281 80.085938 96.0625 81.453125 C 96.164062 82.808594 96.195312 84.242188 96.207031 85.730469 C 96.207031 87.214844 96.140625 88.757812 96.0625 90.324219 C 96 91.875 95.933594 93.472656 95.855469 95.058594 C 95.636719 101.40625 95.460938 107.761719 95.230469 112.519531 C 95.023438 117.277344 94.847656 120.449219 94.847656 120.449219 L 94.671875 120.605469 " fill-opacity="1" fill-rule="nonzero"/></svg>