<svg xmlns="http://www.w3.org/2000/svg" width="210" zoomAndPan="magnify" viewBox="0 0 157.5 74.999997" height="100"
     preserveAspectRatio="xMidYMid meet" version="1.0">
    <defs>
        <g/>
        <clipPath id="id1">
            <path d="M 0.785156 3.355469 L 69.035156 3.355469 L 69.035156 71.605469 L 0.785156 71.605469 Z M 0.785156 3.355469 "
                  clip-rule="nonzero"/>
        </clipPath>
    </defs>
    <g clip-path="url(#id1)">
        <path fill="#f43e71"
              d="M 34.910156 3.355469 C 16.066406 3.355469 0.785156 18.632812 0.785156 37.480469 C 0.785156 56.328125 16.066406 71.605469 34.910156 71.605469 C 53.757812 71.605469 69.035156 56.328125 69.035156 37.480469 C 69.035156 18.632812 53.757812 3.355469 34.910156 3.355469 "
              fill-opacity="1" fill-rule="nonzero"/>
    </g>
    <g fill="#ffffff" fill-opacity="1">
        <g transform="translate(6.670727, 51.324754)">
            <g>
                <path d="M 2.828125 0 L 2.828125 -24.21875 L 11.1875 -24.21875 L 11.1875 -21.671875 L 11.28125 -21.671875 C 13.445312 -23.835938 15.757812 -24.921875 18.21875 -24.921875 C 19.976562 -24.921875 21.628906 -24.554688 23.171875 -23.828125 C 24.710938 -23.109375 25.878906 -21.992188 26.671875 -20.484375 C 29.128906 -23.441406 31.800781 -24.921875 34.6875 -24.921875 C 37.269531 -24.921875 39.488281 -24.195312 41.34375 -22.75 C 43.207031 -21.300781 44.140625 -19.035156 44.140625 -15.953125 L 44.140625 0 L 35.78125 0 L 35.78125 -13.6875 C 35.78125 -14.976562 35.425781 -16.054688 34.71875 -16.921875 C 34.007812 -17.785156 32.945312 -18.21875 31.53125 -18.21875 C 30.300781 -18.21875 29.363281 -17.847656 28.71875 -17.109375 C 28.070312 -16.367188 27.71875 -15.476562 27.65625 -14.4375 L 27.65625 0 L 19.3125 0 L 19.3125 -13.6875 C 19.3125 -14.976562 18.957031 -16.054688 18.25 -16.921875 C 17.539062 -17.785156 16.476562 -18.21875 15.0625 -18.21875 C 13.769531 -18.21875 12.800781 -17.816406 12.15625 -17.015625 C 11.507812 -16.210938 11.1875 -15.257812 11.1875 -14.15625 L 11.1875 0 Z M 2.828125 0 "/>
            </g>
        </g>
    </g>
    <g fill="#ffffff" fill-opacity="1">
        <g transform="translate(53.685756, 49.696546)">
            <g>
                <path d="M 4.125 -5.078125 C 4.882812 -5.078125 5.53125 -4.8125 6.0625 -4.28125 C 6.59375 -3.75 6.859375 -3.101562 6.859375 -2.34375 C 6.859375 -1.601562 6.59375 -0.96875 6.0625 -0.4375 C 5.53125 0.09375 4.882812 0.359375 4.125 0.359375 C 3.382812 0.359375 2.75 0.09375 2.21875 -0.4375 C 1.6875 -0.96875 1.421875 -1.601562 1.421875 -2.34375 C 1.421875 -3.101562 1.6875 -3.75 2.21875 -4.28125 C 2.75 -4.8125 3.382812 -5.078125 4.125 -5.078125 Z M 4.125 -5.078125 "/>
            </g>
        </g>
    </g>
    <g fill="#ffffff" fill-opacity="1">
        <g transform="translate(61.973109, 49.696546)">
            <g/>
        </g>
    </g>
    <g fill="#ffffff" fill-opacity="1">
        <g transform="translate(53.957986, 43.475042)">
            <g>
                <path d="M 1.265625 -17.484375 L 7.515625 -17.484375 C 9.203125 -17.484375 10.570312 -17.03125 11.625 -16.125 C 12.6875 -15.226562 13.21875 -13.945312 13.21875 -12.28125 C 13.21875 -11 12.894531 -9.921875 12.25 -9.046875 C 11.613281 -8.179688 10.742188 -7.570312 9.640625 -7.21875 L 15.65625 0 L 10.59375 0 L 5.25 -6.90625 L 5.25 0 L 1.265625 0 Z M 5.25 -9.71875 L 5.71875 -9.71875 C 6.082031 -9.71875 6.390625 -9.722656 6.640625 -9.734375 C 6.898438 -9.753906 7.191406 -9.804688 7.515625 -9.890625 C 7.847656 -9.972656 8.113281 -10.09375 8.3125 -10.25 C 8.507812 -10.40625 8.675781 -10.628906 8.8125 -10.921875 C 8.957031 -11.222656 9.03125 -11.585938 9.03125 -12.015625 C 9.03125 -12.441406 8.957031 -12.800781 8.8125 -13.09375 C 8.675781 -13.382812 8.507812 -13.609375 8.3125 -13.765625 C 8.113281 -13.921875 7.847656 -14.039062 7.515625 -14.125 C 7.191406 -14.21875 6.898438 -14.269531 6.640625 -14.28125 C 6.390625 -14.289062 6.082031 -14.296875 5.71875 -14.296875 L 5.25 -14.296875 Z M 5.25 -9.71875 "/>
            </g>
        </g>
    </g>
    <g fill="#000000" fill-opacity="1">
        <g transform="translate(69.125809, 43.475042)">
            <g>
                <path d="M 2.296875 -1.296875 C 1.085938 -2.367188 0.484375 -3.742188 0.484375 -5.421875 C 0.484375 -7.109375 1.113281 -8.488281 2.375 -9.5625 C 3.632812 -10.644531 5.1875 -11.1875 7.03125 -11.1875 C 8.851562 -11.1875 10.390625 -10.640625 11.640625 -9.546875 C 12.890625 -8.460938 13.515625 -7.085938 13.515625 -5.421875 C 13.515625 -3.753906 12.90625 -2.378906 11.6875 -1.296875 C 10.46875 -0.222656 8.914062 0.3125 7.03125 0.3125 C 5.082031 0.3125 3.503906 -0.222656 2.296875 -1.296875 Z M 5.203125 -7.265625 C 4.710938 -6.785156 4.46875 -6.171875 4.46875 -5.421875 C 4.46875 -4.671875 4.703125 -4.054688 5.171875 -3.578125 C 5.640625 -3.109375 6.253906 -2.875 7.015625 -2.875 C 7.742188 -2.875 8.34375 -3.113281 8.8125 -3.59375 C 9.289062 -4.082031 9.53125 -4.691406 9.53125 -5.421875 C 9.53125 -6.171875 9.285156 -6.785156 8.796875 -7.265625 C 8.316406 -7.742188 7.722656 -7.984375 7.015625 -7.984375 C 6.296875 -7.984375 5.691406 -7.742188 5.203125 -7.265625 Z M 5.203125 -7.265625 "/>
            </g>
        </g>
    </g>
    <g fill="#000000" fill-opacity="1">
        <g transform="translate(83.129588, 43.475042)">
            <g>
                <path d="M 12.453125 -9.515625 C 13.472656 -8.398438 13.984375 -7.035156 13.984375 -5.421875 C 13.984375 -3.816406 13.472656 -2.457031 12.453125 -1.34375 C 11.441406 -0.238281 10.148438 0.3125 8.578125 0.3125 C 7.140625 0.3125 5.953125 -0.203125 5.015625 -1.234375 L 4.984375 -1.234375 L 4.984375 0 L 1.265625 0 L 1.265625 -18.21875 L 5.015625 -18.21875 L 5.015625 -9.828125 C 5.953125 -10.734375 7.140625 -11.1875 8.578125 -11.1875 C 10.148438 -11.1875 11.441406 -10.628906 12.453125 -9.515625 Z M 9.296875 -3.578125 C 9.765625 -4.054688 10 -4.671875 10 -5.421875 C 10 -6.171875 9.753906 -6.785156 9.265625 -7.265625 C 8.773438 -7.742188 8.171875 -7.984375 7.453125 -7.984375 C 6.753906 -7.984375 6.160156 -7.742188 5.671875 -7.265625 C 5.179688 -6.785156 4.9375 -6.171875 4.9375 -5.421875 C 4.9375 -4.691406 5.171875 -4.082031 5.640625 -3.59375 C 6.117188 -3.113281 6.722656 -2.875 7.453125 -2.875 C 8.222656 -2.875 8.835938 -3.109375 9.296875 -3.578125 Z M 9.296875 -3.578125 "/>
            </g>
        </g>
    </g>
    <g fill="#000000" fill-opacity="1">
        <g transform="translate(97.599451, 43.475042)">
            <g>
                <path d="M 1.625 -16.921875 C 2.0625 -17.359375 2.582031 -17.578125 3.1875 -17.578125 C 3.800781 -17.578125 4.328125 -17.359375 4.765625 -16.921875 C 5.203125 -16.484375 5.421875 -15.960938 5.421875 -15.359375 C 5.421875 -14.753906 5.203125 -14.234375 4.765625 -13.796875 C 4.328125 -13.359375 3.800781 -13.140625 3.1875 -13.140625 C 2.582031 -13.140625 2.0625 -13.359375 1.625 -13.796875 C 1.1875 -14.234375 0.96875 -14.753906 0.96875 -15.359375 C 0.96875 -15.960938 1.1875 -16.484375 1.625 -16.921875 Z M 1.265625 -10.875 L 1.265625 0 L 5.015625 0 L 5.015625 -10.875 Z M 1.265625 -10.875 "/>
            </g>
        </g>
    </g>
    <g fill="#000000" fill-opacity="1">
        <g transform="translate(103.997549, 43.475042)">
            <g>
                <path d="M 1.265625 0 L 1.265625 -10.875 L 5.015625 -10.875 L 5.015625 -9.71875 L 5.0625 -9.71875 C 6.039062 -10.695312 7.078125 -11.1875 8.171875 -11.1875 C 8.710938 -11.1875 9.25 -11.113281 9.78125 -10.96875 C 10.3125 -10.832031 10.816406 -10.613281 11.296875 -10.3125 C 11.785156 -10.019531 12.179688 -9.597656 12.484375 -9.046875 C 12.796875 -8.503906 12.953125 -7.875 12.953125 -7.15625 L 12.953125 0 L 9.203125 0 L 9.203125 -6.140625 C 9.203125 -6.703125 9.019531 -7.195312 8.65625 -7.625 C 8.289062 -8.050781 7.820312 -8.265625 7.25 -8.265625 C 6.6875 -8.265625 6.171875 -8.046875 5.703125 -7.609375 C 5.242188 -7.171875 5.015625 -6.679688 5.015625 -6.140625 L 5.015625 0 Z M 1.265625 0 "/>
            </g>
        </g>
    </g>
    <g fill="#000000" fill-opacity="1">
        <g transform="translate(118.001328, 43.475042)">
            <g>
                <path d="M 6 -11.1875 C 6.613281 -11.1875 7.222656 -11.113281 7.828125 -10.96875 C 8.441406 -10.832031 8.898438 -10.691406 9.203125 -10.546875 L 9.640625 -10.34375 L 8.40625 -7.875 C 7.5625 -8.332031 6.757812 -8.5625 6 -8.5625 C 5.570312 -8.5625 5.269531 -8.515625 5.09375 -8.421875 C 4.914062 -8.328125 4.828125 -8.15625 4.828125 -7.90625 C 4.828125 -7.84375 4.832031 -7.785156 4.84375 -7.734375 C 4.863281 -7.679688 4.894531 -7.628906 4.9375 -7.578125 C 4.976562 -7.523438 5.015625 -7.476562 5.046875 -7.4375 C 5.085938 -7.40625 5.148438 -7.367188 5.234375 -7.328125 C 5.316406 -7.285156 5.382812 -7.253906 5.4375 -7.234375 C 5.488281 -7.210938 5.566406 -7.179688 5.671875 -7.140625 C 5.785156 -7.097656 5.867188 -7.066406 5.921875 -7.046875 C 5.984375 -7.023438 6.082031 -6.992188 6.21875 -6.953125 C 6.351562 -6.910156 6.457031 -6.878906 6.53125 -6.859375 C 6.96875 -6.734375 7.347656 -6.59375 7.671875 -6.4375 C 7.992188 -6.28125 8.332031 -6.066406 8.6875 -5.796875 C 9.050781 -5.535156 9.332031 -5.195312 9.53125 -4.78125 C 9.726562 -4.375 9.828125 -3.910156 9.828125 -3.390625 C 9.828125 -0.921875 8.113281 0.3125 4.6875 0.3125 C 3.90625 0.3125 3.164062 0.191406 2.46875 -0.046875 C 1.769531 -0.285156 1.265625 -0.523438 0.953125 -0.765625 L 0.484375 -1.140625 L 2.015625 -3.703125 C 2.128906 -3.609375 2.273438 -3.492188 2.453125 -3.359375 C 2.640625 -3.222656 2.972656 -3.035156 3.453125 -2.796875 C 3.929688 -2.566406 4.347656 -2.453125 4.703125 -2.453125 C 5.484375 -2.453125 5.875 -2.710938 5.875 -3.234375 C 5.875 -3.484375 5.773438 -3.671875 5.578125 -3.796875 C 5.378906 -3.929688 5.039062 -4.082031 4.5625 -4.25 C 4.09375 -4.425781 3.722656 -4.582031 3.453125 -4.71875 C 2.773438 -5.070312 2.238281 -5.472656 1.84375 -5.921875 C 1.445312 -6.367188 1.25 -6.957031 1.25 -7.6875 C 1.25 -8.789062 1.675781 -9.648438 2.53125 -10.265625 C 3.382812 -10.878906 4.539062 -11.1875 6 -11.1875 Z M 6 -11.1875 "/>
            </g>
        </g>
    </g>
    <g fill="#000000" fill-opacity="1">
        <g transform="translate(128.424715, 43.475042)">
            <g>
                <path d="M 2.296875 -1.296875 C 1.085938 -2.367188 0.484375 -3.742188 0.484375 -5.421875 C 0.484375 -7.109375 1.113281 -8.488281 2.375 -9.5625 C 3.632812 -10.644531 5.1875 -11.1875 7.03125 -11.1875 C 8.851562 -11.1875 10.390625 -10.640625 11.640625 -9.546875 C 12.890625 -8.460938 13.515625 -7.085938 13.515625 -5.421875 C 13.515625 -3.753906 12.90625 -2.378906 11.6875 -1.296875 C 10.46875 -0.222656 8.914062 0.3125 7.03125 0.3125 C 5.082031 0.3125 3.503906 -0.222656 2.296875 -1.296875 Z M 5.203125 -7.265625 C 4.710938 -6.785156 4.46875 -6.171875 4.46875 -5.421875 C 4.46875 -4.671875 4.703125 -4.054688 5.171875 -3.578125 C 5.640625 -3.109375 6.253906 -2.875 7.015625 -2.875 C 7.742188 -2.875 8.34375 -3.113281 8.8125 -3.59375 C 9.289062 -4.082031 9.53125 -4.691406 9.53125 -5.421875 C 9.53125 -6.171875 9.285156 -6.785156 8.796875 -7.265625 C 8.316406 -7.742188 7.722656 -7.984375 7.015625 -7.984375 C 6.296875 -7.984375 5.691406 -7.742188 5.203125 -7.265625 Z M 5.203125 -7.265625 "/>
            </g>
        </g>
    </g>
    <g fill="#000000" fill-opacity="1">
        <g transform="translate(142.428494, 43.475042)">
            <g>
                <path d="M 1.265625 0 L 1.265625 -10.875 L 5.015625 -10.875 L 5.015625 -9.71875 L 5.0625 -9.71875 C 6.039062 -10.695312 7.078125 -11.1875 8.171875 -11.1875 C 8.710938 -11.1875 9.25 -11.113281 9.78125 -10.96875 C 10.3125 -10.832031 10.816406 -10.613281 11.296875 -10.3125 C 11.785156 -10.019531 12.179688 -9.597656 12.484375 -9.046875 C 12.796875 -8.503906 12.953125 -7.875 12.953125 -7.15625 L 12.953125 0 L 9.203125 0 L 9.203125 -6.140625 C 9.203125 -6.703125 9.019531 -7.195312 8.65625 -7.625 C 8.289062 -8.050781 7.820312 -8.265625 7.25 -8.265625 C 6.6875 -8.265625 6.171875 -8.046875 5.703125 -7.609375 C 5.242188 -7.171875 5.015625 -6.679688 5.015625 -6.140625 L 5.015625 0 Z M 1.265625 0 "/>
            </g>
        </g>
    </g>
    <g fill="#000000" fill-opacity="1">
        <g transform="translate(156.429742, 43.475042)">
            <g/>
        </g>
    </g>
    <g fill="#000000" fill-opacity="1">
        <g transform="translate(70.413877, 54.563872)">
            <g>
                <path d="M 0.28125 -2.90625 L 0.28125 -4.0625 L 3.125 -6.046875 L 3.125 -4.765625 L 1.359375 -3.484375 L 3.125 -2.203125 L 3.125 -0.921875 Z M 0.28125 -2.90625 "/>
            </g>
        </g>
    </g>
    <g fill="#000000" fill-opacity="1">
        <g transform="translate(74.062732, 54.563872)">
            <g/>
        </g>
    </g>
    <g fill="#f43e71" fill-opacity="1">
        <g transform="translate(76.408895, 54.563872)">
            <g>
                <path d="M 1.21875 -6.203125 L 0.09375 -6.203125 L 0.09375 -7.421875 L 3.984375 -7.421875 L 3.984375 -6.203125 L 2.875 -6.203125 L 2.875 0 L 1.21875 0 Z M 1.21875 -6.203125 "/>
            </g>
        </g>
    </g>
    <g fill="#f43e71" fill-opacity="1">
        <g transform="translate(80.488641, 54.563872)">
            <g>
                <path d="M 2.203125 0.09375 C 1.617188 0.09375 1.164062 -0.0546875 0.84375 -0.359375 C 0.519531 -0.671875 0.359375 -1.109375 0.359375 -1.671875 L 0.359375 -3.625 C 0.359375 -4.1875 0.519531 -4.617188 0.84375 -4.921875 C 1.164062 -5.234375 1.617188 -5.390625 2.203125 -5.390625 C 2.785156 -5.390625 3.222656 -5.238281 3.515625 -4.9375 C 3.816406 -4.644531 3.96875 -4.207031 3.96875 -3.625 L 3.96875 -2.5625 L 1.828125 -2.5625 L 1.828125 -1.546875 C 1.828125 -1.160156 1.953125 -0.96875 2.203125 -0.96875 C 2.460938 -0.96875 2.59375 -1.140625 2.59375 -1.484375 L 2.59375 -2.046875 L 3.96875 -2.046875 L 3.96875 -1.53125 C 3.96875 -1 3.8125 -0.59375 3.5 -0.3125 C 3.1875 -0.0390625 2.753906 0.09375 2.203125 0.09375 Z M 2.59375 -3.25 L 2.59375 -3.78125 C 2.59375 -3.976562 2.554688 -4.117188 2.484375 -4.203125 C 2.410156 -4.285156 2.3125 -4.328125 2.1875 -4.328125 C 2.070312 -4.328125 1.984375 -4.28125 1.921875 -4.1875 C 1.859375 -4.09375 1.828125 -3.929688 1.828125 -3.703125 L 1.828125 -3.25 Z M 2.59375 -3.25 "/>
            </g>
        </g>
    </g>
    <g fill="#f43e71" fill-opacity="1">
        <g transform="translate(84.797589, 54.563872)">
            <g>
                <path d="M 2.1875 0.09375 C 1.613281 0.09375 1.164062 -0.0625 0.84375 -0.375 C 0.519531 -0.6875 0.359375 -1.117188 0.359375 -1.671875 L 0.359375 -3.625 C 0.359375 -4.1875 0.519531 -4.617188 0.84375 -4.921875 C 1.164062 -5.234375 1.613281 -5.390625 2.1875 -5.390625 C 2.757812 -5.390625 3.203125 -5.253906 3.515625 -4.984375 C 3.828125 -4.722656 3.984375 -4.328125 3.984375 -3.796875 L 3.984375 -3.234375 L 2.546875 -3.234375 L 2.546875 -3.84375 C 2.546875 -4.039062 2.515625 -4.175781 2.453125 -4.25 C 2.390625 -4.332031 2.300781 -4.375 2.1875 -4.375 C 2.070312 -4.375 1.988281 -4.328125 1.9375 -4.234375 C 1.882812 -4.140625 1.859375 -3.976562 1.859375 -3.75 L 1.859375 -1.546875 C 1.859375 -1.316406 1.882812 -1.15625 1.9375 -1.0625 C 2 -0.976562 2.085938 -0.9375 2.203125 -0.9375 C 2.316406 -0.9375 2.398438 -0.972656 2.453125 -1.046875 C 2.515625 -1.128906 2.546875 -1.265625 2.546875 -1.453125 L 2.546875 -2.171875 L 3.984375 -2.171875 L 3.984375 -1.515625 C 3.984375 -0.992188 3.828125 -0.59375 3.515625 -0.3125 C 3.203125 -0.0390625 2.757812 0.09375 2.1875 0.09375 Z M 2.1875 0.09375 "/>
            </g>
        </g>
    </g>
    <g fill="#f43e71" fill-opacity="1">
        <g transform="translate(89.088201, 54.563872)">
            <g>
                <path d="M 0.484375 -7.421875 L 1.96875 -7.421875 L 1.96875 -4.828125 C 2.332031 -5.203125 2.765625 -5.390625 3.265625 -5.390625 C 3.566406 -5.390625 3.800781 -5.273438 3.96875 -5.046875 C 4.144531 -4.816406 4.234375 -4.519531 4.234375 -4.15625 L 4.234375 0 L 2.75 0 L 2.75 -3.9375 C 2.75 -4.070312 2.722656 -4.171875 2.671875 -4.234375 C 2.628906 -4.304688 2.554688 -4.34375 2.453125 -4.34375 C 2.316406 -4.34375 2.15625 -4.273438 1.96875 -4.140625 L 1.96875 0 L 0.484375 0 Z M 0.484375 -7.421875 "/>
            </g>
        </g>
    </g>
    <g fill="#000000" fill-opacity="1">
        <g transform="translate(93.754234, 54.563872)">
            <g/>
        </g>
    </g>
    <g fill="#000000" fill-opacity="1">
        <g transform="translate(96.101235, 54.563872)">
            <g>
                <path d="M 0.546875 -7.421875 L 3.890625 -7.421875 L 3.890625 -6.3125 L 2.1875 -6.3125 L 2.1875 -4.46875 L 3.484375 -4.46875 L 3.484375 -3.328125 L 2.1875 -3.328125 L 2.1875 -1.109375 L 3.90625 -1.109375 L 3.90625 0 L 0.546875 0 Z M 0.546875 -7.421875 "/>
            </g>
        </g>
    </g>
    <g fill="#000000" fill-opacity="1">
        <g transform="translate(100.19932, 54.563872)">
            <g>
                <path d="M 0.46875 -5.296875 L 1.96875 -5.296875 L 1.96875 -4.765625 C 2.382812 -5.179688 2.804688 -5.390625 3.234375 -5.390625 C 3.554688 -5.390625 3.800781 -5.273438 3.96875 -5.046875 C 4.132812 -4.816406 4.21875 -4.519531 4.21875 -4.15625 L 4.21875 0 L 2.734375 0 L 2.734375 -3.9375 C 2.734375 -4.070312 2.707031 -4.171875 2.65625 -4.234375 C 2.613281 -4.304688 2.539062 -4.34375 2.4375 -4.34375 C 2.3125 -4.34375 2.15625 -4.273438 1.96875 -4.140625 L 1.96875 0 L 0.46875 0 Z M 0.46875 -5.296875 "/>
            </g>
        </g>
    </g>
    <g fill="#000000" fill-opacity="1">
        <g transform="translate(104.847483, 54.563872)">
            <g>
                <path d="M 2.109375 0.0625 C 1.710938 0.0625 1.40625 0.00390625 1.1875 -0.109375 C 0.976562 -0.222656 0.832031 -0.382812 0.75 -0.59375 C 0.664062 -0.8125 0.625 -1.09375 0.625 -1.4375 L 0.625 -4.3125 L 0.109375 -4.3125 L 0.109375 -5.296875 L 0.625 -5.296875 L 0.625 -6.921875 L 2.140625 -6.921875 L 2.140625 -5.296875 L 2.890625 -5.296875 L 2.890625 -4.3125 L 2.140625 -4.3125 L 2.140625 -1.59375 C 2.140625 -1.4375 2.179688 -1.320312 2.265625 -1.25 C 2.347656 -1.1875 2.460938 -1.15625 2.609375 -1.15625 C 2.722656 -1.15625 2.859375 -1.164062 3.015625 -1.1875 L 3.015625 -0.015625 C 2.710938 0.0351562 2.410156 0.0625 2.109375 0.0625 Z M 2.109375 0.0625 "/>
            </g>
        </g>
    </g>
    <g fill="#000000" fill-opacity="1">
        <g transform="translate(108.092944, 54.563872)">
            <g>
                <path d="M 0.484375 -7.421875 L 1.96875 -7.421875 L 1.96875 -4.828125 C 2.332031 -5.203125 2.765625 -5.390625 3.265625 -5.390625 C 3.566406 -5.390625 3.800781 -5.273438 3.96875 -5.046875 C 4.144531 -4.816406 4.234375 -4.519531 4.234375 -4.15625 L 4.234375 0 L 2.75 0 L 2.75 -3.9375 C 2.75 -4.070312 2.722656 -4.171875 2.671875 -4.234375 C 2.628906 -4.304688 2.554688 -4.34375 2.453125 -4.34375 C 2.316406 -4.34375 2.15625 -4.273438 1.96875 -4.140625 L 1.96875 0 L 0.484375 0 Z M 0.484375 -7.421875 "/>
            </g>
        </g>
    </g>
    <g fill="#000000" fill-opacity="1">
        <g transform="translate(112.759441, 54.563872)">
            <g>
                <path d="M 1.40625 0.09375 C 1.082031 0.09375 0.832031 -0.0195312 0.65625 -0.25 C 0.488281 -0.476562 0.40625 -0.773438 0.40625 -1.140625 L 0.40625 -5.296875 L 1.90625 -5.296875 L 1.90625 -1.328125 C 1.90625 -1.191406 1.925781 -1.085938 1.96875 -1.015625 C 2.019531 -0.953125 2.101562 -0.921875 2.21875 -0.921875 C 2.3125 -0.921875 2.457031 -0.972656 2.65625 -1.078125 L 2.65625 -5.296875 L 4.140625 -5.296875 L 4.140625 0 L 2.65625 0 L 2.65625 -0.484375 C 2.238281 -0.0976562 1.820312 0.09375 1.40625 0.09375 Z M 1.40625 0.09375 "/>
            </g>
        </g>
    </g>
    <g fill="#000000" fill-opacity="1">
        <g transform="translate(117.380102, 54.563872)">
            <g>
                <path d="M 2.09375 0.09375 C 1.625 0.09375 1.234375 -0.0078125 0.921875 -0.21875 C 0.617188 -0.4375 0.375 -0.773438 0.1875 -1.234375 L 1.203125 -1.6875 C 1.296875 -1.445312 1.410156 -1.257812 1.546875 -1.125 C 1.679688 -0.988281 1.828125 -0.921875 1.984375 -0.921875 C 2.210938 -0.921875 2.328125 -1.007812 2.328125 -1.1875 C 2.328125 -1.320312 2.28125 -1.441406 2.1875 -1.546875 C 2.09375 -1.660156 1.894531 -1.84375 1.59375 -2.09375 L 1.203125 -2.40625 C 0.890625 -2.675781 0.660156 -2.921875 0.515625 -3.140625 C 0.367188 -3.359375 0.296875 -3.625 0.296875 -3.9375 C 0.296875 -4.21875 0.367188 -4.46875 0.515625 -4.6875 C 0.671875 -4.90625 0.875 -5.078125 1.125 -5.203125 C 1.375 -5.328125 1.644531 -5.390625 1.9375 -5.390625 C 2.375 -5.390625 2.734375 -5.269531 3.015625 -5.03125 C 3.304688 -4.800781 3.515625 -4.46875 3.640625 -4.03125 L 2.671875 -3.59375 C 2.617188 -3.78125 2.523438 -3.953125 2.390625 -4.109375 C 2.265625 -4.265625 2.125 -4.34375 1.96875 -4.34375 C 1.875 -4.34375 1.796875 -4.316406 1.734375 -4.265625 C 1.679688 -4.210938 1.65625 -4.140625 1.65625 -4.046875 C 1.65625 -3.929688 1.710938 -3.8125 1.828125 -3.6875 C 1.953125 -3.5625 2.140625 -3.394531 2.390625 -3.1875 L 2.765625 -2.859375 C 3.078125 -2.597656 3.3125 -2.351562 3.46875 -2.125 C 3.632812 -1.90625 3.71875 -1.644531 3.71875 -1.34375 C 3.71875 -1.050781 3.644531 -0.796875 3.5 -0.578125 C 3.351562 -0.359375 3.15625 -0.191406 2.90625 -0.078125 C 2.65625 0.0351562 2.382812 0.09375 2.09375 0.09375 Z M 2.09375 0.09375 "/>
            </g>
        </g>
    </g>
    <g fill="#000000" fill-opacity="1">
        <g transform="translate(121.267324, 54.563872)">
            <g>
                <path d="M 0.46875 -7.234375 L 1.96875 -7.234375 L 1.96875 -6.203125 L 0.46875 -6.203125 Z M 0.484375 -5.296875 L 1.96875 -5.296875 L 1.96875 0 L 0.484375 0 Z M 0.484375 -5.296875 "/>
            </g>
        </g>
    </g>
    <g fill="#000000" fill-opacity="1">
        <g transform="translate(123.696839, 54.563872)">
            <g>
                <path d="M 1.5625 0.09375 C 1.300781 0.09375 1.078125 0.03125 0.890625 -0.09375 C 0.703125 -0.21875 0.5625 -0.378906 0.46875 -0.578125 C 0.375 -0.773438 0.328125 -0.984375 0.328125 -1.203125 C 0.328125 -1.609375 0.429688 -1.941406 0.640625 -2.203125 C 0.847656 -2.472656 1.097656 -2.679688 1.390625 -2.828125 C 1.679688 -2.972656 2.054688 -3.125 2.515625 -3.28125 L 2.515625 -3.8125 C 2.515625 -3.96875 2.488281 -4.082031 2.4375 -4.15625 C 2.394531 -4.238281 2.316406 -4.28125 2.203125 -4.28125 C 2.085938 -4.28125 2.003906 -4.242188 1.953125 -4.171875 C 1.898438 -4.097656 1.875 -3.992188 1.875 -3.859375 L 1.828125 -3.46875 L 0.4375 -3.53125 C 0.46875 -4.164062 0.632812 -4.632812 0.9375 -4.9375 C 1.25 -5.238281 1.71875 -5.390625 2.34375 -5.390625 C 2.863281 -5.390625 3.257812 -5.242188 3.53125 -4.953125 C 3.800781 -4.660156 3.9375 -4.273438 3.9375 -3.796875 L 3.9375 -1.328125 C 3.9375 -0.785156 3.96875 -0.34375 4.03125 0 L 2.703125 0 C 2.640625 -0.40625 2.597656 -0.65625 2.578125 -0.75 C 2.503906 -0.507812 2.378906 -0.304688 2.203125 -0.140625 C 2.035156 0.015625 1.820312 0.09375 1.5625 0.09375 Z M 2.09375 -0.921875 C 2.25 -0.921875 2.390625 -1.007812 2.515625 -1.1875 L 2.515625 -2.625 C 2.234375 -2.46875 2.019531 -2.300781 1.875 -2.125 C 1.738281 -1.957031 1.671875 -1.75 1.671875 -1.5 C 1.671875 -1.320312 1.707031 -1.179688 1.78125 -1.078125 C 1.863281 -0.972656 1.96875 -0.921875 2.09375 -0.921875 Z M 2.09375 -0.921875 "/>
            </g>
        </g>
    </g>
    <g fill="#000000" fill-opacity="1">
        <g transform="translate(128.060793, 54.563872)">
            <g>
                <path d="M 2.09375 0.09375 C 1.625 0.09375 1.234375 -0.0078125 0.921875 -0.21875 C 0.617188 -0.4375 0.375 -0.773438 0.1875 -1.234375 L 1.203125 -1.6875 C 1.296875 -1.445312 1.410156 -1.257812 1.546875 -1.125 C 1.679688 -0.988281 1.828125 -0.921875 1.984375 -0.921875 C 2.210938 -0.921875 2.328125 -1.007812 2.328125 -1.1875 C 2.328125 -1.320312 2.28125 -1.441406 2.1875 -1.546875 C 2.09375 -1.660156 1.894531 -1.84375 1.59375 -2.09375 L 1.203125 -2.40625 C 0.890625 -2.675781 0.660156 -2.921875 0.515625 -3.140625 C 0.367188 -3.359375 0.296875 -3.625 0.296875 -3.9375 C 0.296875 -4.21875 0.367188 -4.46875 0.515625 -4.6875 C 0.671875 -4.90625 0.875 -5.078125 1.125 -5.203125 C 1.375 -5.328125 1.644531 -5.390625 1.9375 -5.390625 C 2.375 -5.390625 2.734375 -5.269531 3.015625 -5.03125 C 3.304688 -4.800781 3.515625 -4.46875 3.640625 -4.03125 L 2.671875 -3.59375 C 2.617188 -3.78125 2.523438 -3.953125 2.390625 -4.109375 C 2.265625 -4.265625 2.125 -4.34375 1.96875 -4.34375 C 1.875 -4.34375 1.796875 -4.316406 1.734375 -4.265625 C 1.679688 -4.210938 1.65625 -4.140625 1.65625 -4.046875 C 1.65625 -3.929688 1.710938 -3.8125 1.828125 -3.6875 C 1.953125 -3.5625 2.140625 -3.394531 2.390625 -3.1875 L 2.765625 -2.859375 C 3.078125 -2.597656 3.3125 -2.351562 3.46875 -2.125 C 3.632812 -1.90625 3.71875 -1.644531 3.71875 -1.34375 C 3.71875 -1.050781 3.644531 -0.796875 3.5 -0.578125 C 3.351562 -0.359375 3.15625 -0.191406 2.90625 -0.078125 C 2.65625 0.0351562 2.382812 0.09375 2.09375 0.09375 Z M 2.09375 0.09375 "/>
            </g>
        </g>
    </g>
    <g fill="#000000" fill-opacity="1">
        <g transform="translate(131.948016, 54.563872)">
            <g>
                <path d="M 2.109375 0.0625 C 1.710938 0.0625 1.40625 0.00390625 1.1875 -0.109375 C 0.976562 -0.222656 0.832031 -0.382812 0.75 -0.59375 C 0.664062 -0.8125 0.625 -1.09375 0.625 -1.4375 L 0.625 -4.3125 L 0.109375 -4.3125 L 0.109375 -5.296875 L 0.625 -5.296875 L 0.625 -6.921875 L 2.140625 -6.921875 L 2.140625 -5.296875 L 2.890625 -5.296875 L 2.890625 -4.3125 L 2.140625 -4.3125 L 2.140625 -1.59375 C 2.140625 -1.4375 2.179688 -1.320312 2.265625 -1.25 C 2.347656 -1.1875 2.460938 -1.15625 2.609375 -1.15625 C 2.722656 -1.15625 2.859375 -1.164062 3.015625 -1.1875 L 3.015625 -0.015625 C 2.710938 0.0351562 2.410156 0.0625 2.109375 0.0625 Z M 2.109375 0.0625 "/>
            </g>
        </g>
    </g>
    <g fill="#000000" fill-opacity="1">
        <g transform="translate(135.193477, 54.563872)">
            <g/>
        </g>
    </g>
    <g fill="#000000" fill-opacity="1">
        <g transform="translate(137.540478, 54.563872)">
            <g>
                <path d="M 0.5 -2.203125 L 2.28125 -3.5 L 0.5 -4.765625 L 0.5 -6.046875 L 3.34375 -4.0625 L 3.34375 -2.90625 L 0.5 -0.921875 Z M 0.5 -2.203125 "/>
            </g>
        </g>
    </g>
</svg>