<svg xmlns="http://www.w3.org/2000/svg" width="700" zoomAndPan="magnify" viewBox="0 0 525 299.999988" height="400"
     preserveAspectRatio="xMidYMid meet" version="1.0">
    <defs>
        <g/>
        <clipPath id="id1">
            <path d="M 0 34.636719 L 231 34.636719 L 231 265.636719 L 0 265.636719 Z M 0 34.636719 "
                  clip-rule="nonzero"/>
        </clipPath>
    </defs>
    <g clip-path="url(#id1)">
        <path fill="#f43e71"
              d="M 115.5 34.636719 C 51.710938 34.636719 0 86.347656 0 150.136719 C 0 213.925781 51.710938 265.636719 115.5 265.636719 C 179.289062 265.636719 231 213.925781 231 150.136719 C 231 86.347656 179.289062 34.636719 115.5 34.636719 "
              fill-opacity="1" fill-rule="nonzero"/>
    </g>
    <g fill="#ffffff" fill-opacity="1">
        <g transform="translate(19.811233, 196.14798)">
            <g>
                <path d="M 9.53125 0 L 9.53125 -81.515625 L 37.65625 -81.515625 L 37.65625 -72.9375 L 37.984375 -72.9375 C 45.285156 -80.25 53.070312 -83.90625 61.34375 -83.90625 C 67.269531 -83.90625 72.828125 -82.6875 78.015625 -80.25 C 83.210938 -77.8125 87.132812 -74.050781 89.78125 -68.96875 C 98.039062 -78.925781 107.046875 -83.90625 116.796875 -83.90625 C 125.484375 -83.90625 132.953125 -81.46875 139.203125 -76.59375 C 145.453125 -71.71875 148.578125 -64.085938 148.578125 -53.703125 L 148.578125 0 L 120.453125 0 L 120.453125 -46.078125 C 120.453125 -50.421875 119.257812 -54.050781 116.875 -56.96875 C 114.488281 -59.882812 110.914062 -61.34375 106.15625 -61.34375 C 102.019531 -61.34375 98.863281 -60.097656 96.6875 -57.609375 C 94.519531 -55.117188 93.332031 -52.125 93.125 -48.625 L 93.125 0 L 65 0 L 65 -46.078125 C 65 -50.421875 63.804688 -54.050781 61.421875 -56.96875 C 59.035156 -59.882812 55.457031 -61.34375 50.6875 -61.34375 C 46.34375 -61.34375 43.082031 -59.988281 40.90625 -57.28125 C 38.738281 -54.582031 37.65625 -51.378906 37.65625 -47.671875 L 37.65625 0 Z M 9.53125 0 "/>
            </g>
        </g>
    </g>
    <g fill="#ffffff" fill-opacity="1">
        <g transform="translate(178.109448, 190.665852)">
            <g>
                <path d="M 13.921875 -17.109375 C 16.472656 -17.109375 18.640625 -16.210938 20.421875 -14.421875 C 22.210938 -12.640625 23.109375 -10.472656 23.109375 -7.921875 C 23.109375 -5.410156 22.210938 -3.257812 20.421875 -1.46875 C 18.640625 0.3125 16.472656 1.203125 13.921875 1.203125 C 11.410156 1.203125 9.257812 0.3125 7.46875 -1.46875 C 5.6875 -3.257812 4.796875 -5.410156 4.796875 -7.921875 C 4.796875 -10.472656 5.6875 -12.640625 7.46875 -14.421875 C 9.257812 -16.210938 11.410156 -17.109375 13.921875 -17.109375 Z M 13.921875 -17.109375 "/>
            </g>
        </g>
    </g>
    <g fill="#ffffff" fill-opacity="1">
        <g transform="translate(206.012719, 190.665852)">
            <g/>
        </g>
    </g>
    <g fill="#ffffff" fill-opacity="1">
        <g transform="translate(179.026021, 169.718234)">
            <g>
                <path d="M 4.28125 -58.84375 L 25.328125 -58.84375 C 30.984375 -58.84375 35.59375 -57.332031 39.15625 -54.3125 C 42.726562 -51.289062 44.515625 -46.976562 44.515625 -41.375 C 44.515625 -37.039062 43.429688 -33.410156 41.265625 -30.484375 C 39.097656 -27.566406 36.160156 -25.515625 32.453125 -24.328125 L 52.71875 0 L 35.671875 0 L 17.6875 -23.25 L 17.6875 0 L 4.28125 0 Z M 17.6875 -32.734375 L 19.265625 -32.734375 C 20.492188 -32.734375 21.535156 -32.753906 22.390625 -32.796875 C 23.253906 -32.847656 24.234375 -33.015625 25.328125 -33.296875 C 26.421875 -33.585938 27.296875 -33.992188 27.953125 -34.515625 C 28.617188 -35.046875 29.191406 -35.804688 29.671875 -36.796875 C 30.148438 -37.796875 30.390625 -39.007812 30.390625 -40.4375 C 30.390625 -41.863281 30.148438 -43.078125 29.671875 -44.078125 C 29.191406 -45.078125 28.617188 -45.835938 27.953125 -46.359375 C 27.296875 -46.878906 26.421875 -47.28125 25.328125 -47.5625 C 24.234375 -47.851562 23.253906 -48.019531 22.390625 -48.0625 C 21.535156 -48.113281 20.492188 -48.140625 19.265625 -48.140625 L 17.6875 -48.140625 Z M 17.6875 -32.734375 "/>
            </g>
        </g>
    </g>
    <g fill="#000000" fill-opacity="1">
        <g transform="translate(230.09563, 169.718234)">
            <g>
                <path d="M 7.734375 -4.34375 C 3.671875 -7.957031 1.640625 -12.59375 1.640625 -18.25 C 1.640625 -23.914062 3.753906 -28.566406 7.984375 -32.203125 C 12.222656 -35.835938 17.457031 -37.65625 23.6875 -37.65625 C 29.8125 -37.65625 34.976562 -35.820312 39.1875 -32.15625 C 43.394531 -28.5 45.5 -23.863281 45.5 -18.25 C 45.5 -12.644531 43.441406 -8.023438 39.328125 -4.390625 C 35.222656 -0.753906 30.007812 1.0625 23.6875 1.0625 C 17.125 1.0625 11.804688 -0.738281 7.734375 -4.34375 Z M 17.5 -24.46875 C 15.863281 -22.851562 15.046875 -20.785156 15.046875 -18.265625 C 15.046875 -15.742188 15.832031 -13.6875 17.40625 -12.09375 C 18.976562 -10.5 21.046875 -9.703125 23.609375 -9.703125 C 26.078125 -9.703125 28.109375 -10.507812 29.703125 -12.125 C 31.296875 -13.738281 32.09375 -15.785156 32.09375 -18.265625 C 32.09375 -20.785156 31.269531 -22.851562 29.625 -24.46875 C 27.988281 -26.082031 25.984375 -26.890625 23.609375 -26.890625 C 21.179688 -26.890625 19.144531 -26.082031 17.5 -24.46875 Z M 17.5 -24.46875 "/>
            </g>
        </g>
    </g>
    <g fill="#000000" fill-opacity="1">
        <g transform="translate(277.245939, 169.718234)">
            <g>
                <path d="M 41.9375 -32.015625 C 45.363281 -28.265625 47.078125 -23.675781 47.078125 -18.25 C 47.078125 -12.832031 45.363281 -8.257812 41.9375 -4.53125 C 38.519531 -0.800781 34.171875 1.0625 28.890625 1.0625 C 24.035156 1.0625 20.039062 -0.671875 16.90625 -4.140625 L 16.765625 -4.140625 L 16.765625 0 L 4.28125 0 L 4.28125 -61.34375 L 16.90625 -61.34375 L 16.90625 -33.09375 C 20.039062 -36.132812 24.035156 -37.65625 28.890625 -37.65625 C 34.171875 -37.65625 38.519531 -35.773438 41.9375 -32.015625 Z M 31.3125 -12.09375 C 32.882812 -13.6875 33.671875 -15.742188 33.671875 -18.265625 C 33.671875 -20.785156 32.847656 -22.851562 31.203125 -24.46875 C 29.566406 -26.082031 27.535156 -26.890625 25.109375 -26.890625 C 22.734375 -26.890625 20.722656 -26.082031 19.078125 -24.46875 C 17.441406 -22.851562 16.625 -20.785156 16.625 -18.265625 C 16.625 -15.785156 17.421875 -13.738281 19.015625 -12.125 C 20.609375 -10.507812 22.640625 -9.703125 25.109375 -9.703125 C 27.671875 -9.703125 29.738281 -10.5 31.3125 -12.09375 Z M 31.3125 -12.09375 "/>
            </g>
        </g>
    </g>
    <g fill="#000000" fill-opacity="1">
        <g transform="translate(325.965539, 169.718234)">
            <g>
                <path d="M 5.484375 -56.984375 C 6.960938 -58.460938 8.722656 -59.203125 10.765625 -59.203125 C 12.816406 -59.203125 14.578125 -58.460938 16.046875 -56.984375 C 17.523438 -55.515625 18.265625 -53.753906 18.265625 -51.703125 C 18.265625 -49.660156 17.523438 -47.898438 16.046875 -46.421875 C 14.578125 -44.953125 12.816406 -44.21875 10.765625 -44.21875 C 8.722656 -44.21875 6.960938 -44.953125 5.484375 -46.421875 C 4.015625 -47.898438 3.28125 -49.660156 3.28125 -51.703125 C 3.28125 -53.753906 4.015625 -55.515625 5.484375 -56.984375 Z M 4.28125 -36.59375 L 4.28125 0 L 16.90625 0 L 16.90625 -36.59375 Z M 4.28125 -36.59375 "/>
            </g>
        </g>
    </g>
    <g fill="#000000" fill-opacity="1">
        <g transform="translate(347.507743, 169.718234)">
            <g>
                <path d="M 4.28125 0 L 4.28125 -36.59375 L 16.90625 -36.59375 L 16.90625 -32.734375 L 17.046875 -32.734375 C 20.328125 -36.015625 23.820312 -37.65625 27.53125 -37.65625 C 29.34375 -37.65625 31.140625 -37.414062 32.921875 -36.9375 C 34.703125 -36.46875 36.410156 -35.734375 38.046875 -34.734375 C 39.691406 -33.734375 41.023438 -32.316406 42.046875 -30.484375 C 43.066406 -28.660156 43.578125 -26.535156 43.578125 -24.109375 L 43.578125 0 L 30.953125 0 L 30.953125 -20.6875 C 30.953125 -22.582031 30.34375 -24.242188 29.125 -25.671875 C 27.914062 -27.097656 26.335938 -27.8125 24.390625 -27.8125 C 22.492188 -27.8125 20.769531 -27.070312 19.21875 -25.59375 C 17.675781 -24.125 16.90625 -22.488281 16.90625 -20.6875 L 16.90625 0 Z M 4.28125 0 "/>
            </g>
        </g>
    </g>
    <g fill="#000000" fill-opacity="1">
        <g transform="translate(394.658052, 169.718234)">
            <g>
                <path d="M 20.1875 -37.65625 C 22.28125 -37.65625 24.347656 -37.414062 26.390625 -36.9375 C 28.429688 -36.46875 29.953125 -35.992188 30.953125 -35.515625 L 32.453125 -34.8125 L 28.3125 -26.53125 C 25.457031 -28.050781 22.75 -28.8125 20.1875 -28.8125 C 18.757812 -28.8125 17.75 -28.65625 17.15625 -28.34375 C 16.5625 -28.039062 16.265625 -27.460938 16.265625 -26.609375 C 16.265625 -26.410156 16.285156 -26.21875 16.328125 -26.03125 C 16.378906 -25.84375 16.472656 -25.664062 16.609375 -25.5 C 16.753906 -25.332031 16.882812 -25.1875 17 -25.0625 C 17.125 -24.945312 17.328125 -24.816406 17.609375 -24.671875 C 17.898438 -24.535156 18.128906 -24.429688 18.296875 -24.359375 C 18.460938 -24.285156 18.734375 -24.175781 19.109375 -24.03125 C 19.492188 -23.894531 19.78125 -23.789062 19.96875 -23.71875 C 20.15625 -23.644531 20.472656 -23.535156 20.921875 -23.390625 C 21.378906 -23.253906 21.726562 -23.160156 21.96875 -23.109375 C 23.445312 -22.679688 24.734375 -22.207031 25.828125 -21.6875 C 26.921875 -21.164062 28.070312 -20.453125 29.28125 -19.546875 C 30.488281 -18.640625 31.425781 -17.492188 32.09375 -16.109375 C 32.757812 -14.734375 33.09375 -13.164062 33.09375 -11.40625 C 33.09375 -3.09375 27.316406 1.0625 15.765625 1.0625 C 13.148438 1.0625 10.664062 0.660156 8.3125 -0.140625 C 5.957031 -0.953125 4.253906 -1.757812 3.203125 -2.5625 L 1.640625 -3.859375 L 6.78125 -12.484375 C 7.15625 -12.148438 7.648438 -11.753906 8.265625 -11.296875 C 8.890625 -10.847656 10.007812 -10.234375 11.625 -9.453125 C 13.238281 -8.671875 14.640625 -8.28125 15.828125 -8.28125 C 18.453125 -8.28125 19.765625 -9.15625 19.765625 -10.90625 C 19.765625 -11.71875 19.429688 -12.347656 18.765625 -12.796875 C 18.097656 -13.253906 16.96875 -13.765625 15.375 -14.328125 C 13.78125 -14.898438 12.53125 -15.425781 11.625 -15.90625 C 9.34375 -17.09375 7.535156 -18.4375 6.203125 -19.9375 C 4.867188 -21.4375 4.203125 -23.421875 4.203125 -25.890625 C 4.203125 -29.597656 5.640625 -32.484375 8.515625 -34.546875 C 11.398438 -36.617188 15.289062 -37.65625 20.1875 -37.65625 Z M 20.1875 -37.65625 "/>
            </g>
        </g>
    </g>
    <g fill="#000000" fill-opacity="1">
        <g transform="translate(429.753286, 169.718234)">
            <g>
                <path d="M 7.734375 -4.34375 C 3.671875 -7.957031 1.640625 -12.59375 1.640625 -18.25 C 1.640625 -23.914062 3.753906 -28.566406 7.984375 -32.203125 C 12.222656 -35.835938 17.457031 -37.65625 23.6875 -37.65625 C 29.8125 -37.65625 34.976562 -35.820312 39.1875 -32.15625 C 43.394531 -28.5 45.5 -23.863281 45.5 -18.25 C 45.5 -12.644531 43.441406 -8.023438 39.328125 -4.390625 C 35.222656 -0.753906 30.007812 1.0625 23.6875 1.0625 C 17.125 1.0625 11.804688 -0.738281 7.734375 -4.34375 Z M 17.5 -24.46875 C 15.863281 -22.851562 15.046875 -20.785156 15.046875 -18.265625 C 15.046875 -15.742188 15.832031 -13.6875 17.40625 -12.09375 C 18.976562 -10.5 21.046875 -9.703125 23.609375 -9.703125 C 26.078125 -9.703125 28.109375 -10.507812 29.703125 -12.125 C 31.296875 -13.738281 32.09375 -15.785156 32.09375 -18.265625 C 32.09375 -20.785156 31.269531 -22.851562 29.625 -24.46875 C 27.988281 -26.082031 25.984375 -26.890625 23.609375 -26.890625 C 21.179688 -26.890625 19.144531 -26.082031 17.5 -24.46875 Z M 17.5 -24.46875 "/>
            </g>
        </g>
    </g>
    <g fill="#000000" fill-opacity="1">
        <g transform="translate(476.903594, 169.718234)">
            <g>
                <path d="M 4.28125 0 L 4.28125 -36.59375 L 16.90625 -36.59375 L 16.90625 -32.734375 L 17.046875 -32.734375 C 20.328125 -36.015625 23.820312 -37.65625 27.53125 -37.65625 C 29.34375 -37.65625 31.140625 -37.414062 32.921875 -36.9375 C 34.703125 -36.46875 36.410156 -35.734375 38.046875 -34.734375 C 39.691406 -33.734375 41.023438 -32.316406 42.046875 -30.484375 C 43.066406 -28.660156 43.578125 -26.535156 43.578125 -24.109375 L 43.578125 0 L 30.953125 0 L 30.953125 -20.6875 C 30.953125 -22.582031 30.34375 -24.242188 29.125 -25.671875 C 27.914062 -27.097656 26.335938 -27.8125 24.390625 -27.8125 C 22.492188 -27.8125 20.769531 -27.070312 19.21875 -25.59375 C 17.675781 -24.125 16.90625 -22.488281 16.90625 -20.6875 L 16.90625 0 Z M 4.28125 0 "/>
            </g>
        </g>
    </g>
    <g fill="#000000" fill-opacity="1">
        <g transform="translate(524.04538, 169.718234)">
            <g/>
        </g>
    </g>
    <g fill="#000000" fill-opacity="1">
        <g transform="translate(234.432512, 207.053996)">
            <g>
                <path d="M 0.953125 -9.78125 L 0.953125 -13.671875 L 10.53125 -20.375 L 10.53125 -16.03125 L 4.5625 -11.734375 L 10.53125 -7.4375 L 10.53125 -3.09375 Z M 0.953125 -9.78125 "/>
            </g>
        </g>
    </g>
    <g fill="#000000" fill-opacity="1">
        <g transform="translate(246.718097, 207.053996)">
            <g/>
        </g>
    </g>
    <g fill="#f43e71" fill-opacity="1">
        <g transform="translate(254.617556, 207.053996)">
            <g>
                <path d="M 4.109375 -20.90625 L 0.34375 -20.90625 L 0.34375 -25.015625 L 13.40625 -25.015625 L 13.40625 -20.90625 L 9.65625 -20.90625 L 9.65625 0 L 4.109375 0 Z M 4.109375 -20.90625 "/>
            </g>
        </g>
    </g>
    <g fill="#f43e71" fill-opacity="1">
        <g transform="translate(268.353941, 207.053996)">
            <g>
                <path d="M 7.40625 0.3125 C 5.457031 0.3125 3.9375 -0.207031 2.84375 -1.25 C 1.75 -2.289062 1.203125 -3.757812 1.203125 -5.65625 L 1.203125 -12.203125 C 1.203125 -14.085938 1.75 -15.550781 2.84375 -16.59375 C 3.9375 -17.632812 5.457031 -18.15625 7.40625 -18.15625 C 9.382812 -18.15625 10.867188 -17.648438 11.859375 -16.640625 C 12.847656 -15.628906 13.34375 -14.148438 13.34375 -12.203125 L 13.34375 -8.609375 L 6.171875 -8.609375 L 6.171875 -5.1875 C 6.171875 -3.90625 6.582031 -3.265625 7.40625 -3.265625 C 8.269531 -3.265625 8.703125 -3.84375 8.703125 -5 L 8.703125 -6.890625 L 13.34375 -6.890625 L 13.34375 -5.15625 C 13.34375 -3.363281 12.820312 -2.003906 11.78125 -1.078125 C 10.738281 -0.148438 9.28125 0.3125 7.40625 0.3125 Z M 8.703125 -10.953125 L 8.703125 -12.75 C 8.703125 -13.40625 8.582031 -13.875 8.34375 -14.15625 C 8.113281 -14.4375 7.789062 -14.578125 7.375 -14.578125 C 6.988281 -14.578125 6.691406 -14.421875 6.484375 -14.109375 C 6.273438 -13.796875 6.171875 -13.25 6.171875 -12.46875 L 6.171875 -10.953125 Z M 8.703125 -10.953125 "/>
            </g>
        </g>
    </g>
    <g fill="#f43e71" fill-opacity="1">
        <g transform="translate(282.862037, 207.053996)">
            <g>
                <path d="M 7.375 0.3125 C 5.445312 0.3125 3.9375 -0.210938 2.84375 -1.265625 C 1.75 -2.316406 1.203125 -3.78125 1.203125 -5.65625 L 1.203125 -12.203125 C 1.203125 -14.085938 1.742188 -15.550781 2.828125 -16.59375 C 3.910156 -17.632812 5.425781 -18.15625 7.375 -18.15625 C 9.3125 -18.15625 10.800781 -17.703125 11.84375 -16.796875 C 12.882812 -15.890625 13.40625 -14.550781 13.40625 -12.78125 L 13.40625 -10.90625 L 8.546875 -10.90625 L 8.546875 -12.9375 C 8.546875 -13.613281 8.445312 -14.082031 8.25 -14.34375 C 8.0625 -14.601562 7.769531 -14.734375 7.375 -14.734375 C 6.988281 -14.734375 6.707031 -14.570312 6.53125 -14.25 C 6.351562 -13.925781 6.265625 -13.382812 6.265625 -12.625 L 6.265625 -5.21875 C 6.265625 -4.457031 6.359375 -3.921875 6.546875 -3.609375 C 6.734375 -3.304688 7.019531 -3.15625 7.40625 -3.15625 C 7.800781 -3.15625 8.085938 -3.285156 8.265625 -3.546875 C 8.453125 -3.816406 8.546875 -4.269531 8.546875 -4.90625 L 8.546875 -7.28125 L 13.40625 -7.28125 L 13.40625 -5.125 C 13.40625 -3.351562 12.878906 -2.003906 11.828125 -1.078125 C 10.773438 -0.148438 9.289062 0.3125 7.375 0.3125 Z M 7.375 0.3125 "/>
            </g>
        </g>
    </g>
    <g fill="#f43e71" fill-opacity="1">
        <g transform="translate(297.308402, 207.053996)">
            <g>
                <path d="M 1.609375 -25.015625 L 6.609375 -25.015625 L 6.609375 -16.265625 C 7.859375 -17.523438 9.316406 -18.15625 10.984375 -18.15625 C 12.015625 -18.15625 12.816406 -17.769531 13.390625 -17 C 13.972656 -16.226562 14.265625 -15.222656 14.265625 -13.984375 L 14.265625 0 L 9.265625 0 L 9.265625 -13.28125 C 9.265625 -13.726562 9.1875 -14.0625 9.03125 -14.28125 C 8.875 -14.5 8.613281 -14.609375 8.25 -14.609375 C 7.8125 -14.609375 7.265625 -14.390625 6.609375 -13.953125 L 6.609375 0 L 1.609375 0 Z M 1.609375 -25.015625 "/>
            </g>
        </g>
    </g>
    <g fill="#000000" fill-opacity="1">
        <g transform="translate(313.018795, 207.053996)">
            <g/>
        </g>
    </g>
    <g fill="#000000" fill-opacity="1">
        <g transform="translate(320.921078, 207.053996)">
            <g>
                <path d="M 1.859375 -25.015625 L 13.09375 -25.015625 L 13.09375 -21.234375 L 7.375 -21.234375 L 7.375 -15.03125 L 11.734375 -15.03125 L 11.734375 -11.203125 L 7.375 -11.203125 L 7.375 -3.734375 L 13.15625 -3.734375 L 13.15625 0 L 1.859375 0 Z M 1.859375 -25.015625 "/>
            </g>
        </g>
    </g>
    <g fill="#000000" fill-opacity="1">
        <g transform="translate(334.719208, 207.053996)">
            <g>
                <path d="M 1.578125 -17.84375 L 6.609375 -17.84375 L 6.609375 -16.0625 C 8.003906 -17.457031 9.4375 -18.15625 10.90625 -18.15625 C 11.96875 -18.15625 12.78125 -17.769531 13.34375 -17 C 13.914062 -16.226562 14.203125 -15.222656 14.203125 -13.984375 L 14.203125 0 L 9.203125 0 L 9.203125 -13.28125 C 9.203125 -13.726562 9.125 -14.0625 8.96875 -14.28125 C 8.8125 -14.5 8.550781 -14.609375 8.1875 -14.609375 C 7.769531 -14.609375 7.242188 -14.390625 6.609375 -13.953125 L 6.609375 0 L 1.578125 0 Z M 1.578125 -17.84375 "/>
            </g>
        </g>
    </g>
    <g fill="#000000" fill-opacity="1">
        <g transform="translate(350.369432, 207.053996)">
            <g>
                <path d="M 7.09375 0.1875 C 5.78125 0.1875 4.765625 0 4.046875 -0.375 C 3.328125 -0.757812 2.820312 -1.3125 2.53125 -2.03125 C 2.238281 -2.757812 2.09375 -3.695312 2.09375 -4.84375 L 2.09375 -14.546875 L 0.375 -14.546875 L 0.375 -17.84375 L 2.09375 -17.84375 L 2.09375 -23.28125 L 7.1875 -23.28125 L 7.1875 -17.84375 L 9.71875 -17.84375 L 9.71875 -14.546875 L 7.1875 -14.546875 L 7.1875 -5.34375 C 7.1875 -4.84375 7.328125 -4.472656 7.609375 -4.234375 C 7.890625 -4.003906 8.273438 -3.890625 8.765625 -3.890625 C 9.179688 -3.890625 9.632812 -3.929688 10.125 -4.015625 L 10.125 -0.0625 C 9.132812 0.101562 8.125 0.1875 7.09375 0.1875 Z M 7.09375 0.1875 "/>
            </g>
        </g>
    </g>
    <g fill="#000000" fill-opacity="1">
        <g transform="translate(361.296803, 207.053996)">
            <g>
                <path d="M 1.609375 -25.015625 L 6.609375 -25.015625 L 6.609375 -16.265625 C 7.859375 -17.523438 9.316406 -18.15625 10.984375 -18.15625 C 12.015625 -18.15625 12.816406 -17.769531 13.390625 -17 C 13.972656 -16.226562 14.265625 -15.222656 14.265625 -13.984375 L 14.265625 0 L 9.265625 0 L 9.265625 -13.28125 C 9.265625 -13.726562 9.1875 -14.0625 9.03125 -14.28125 C 8.875 -14.5 8.613281 -14.609375 8.25 -14.609375 C 7.8125 -14.609375 7.265625 -14.390625 6.609375 -13.953125 L 6.609375 0 L 1.609375 0 Z M 1.609375 -25.015625 "/>
            </g>
        </g>
    </g>
    <g fill="#000000" fill-opacity="1">
        <g transform="translate(377.008759, 207.053996)">
            <g>
                <path d="M 4.71875 0.3125 C 3.65625 0.3125 2.832031 -0.0703125 2.25 -0.84375 C 1.675781 -1.613281 1.390625 -2.617188 1.390625 -3.859375 L 1.390625 -17.84375 L 6.421875 -17.84375 L 6.421875 -4.453125 C 6.421875 -3.992188 6.503906 -3.648438 6.671875 -3.421875 C 6.835938 -3.203125 7.101562 -3.09375 7.46875 -3.09375 C 7.800781 -3.09375 8.296875 -3.273438 8.953125 -3.640625 L 8.953125 -17.84375 L 13.953125 -17.84375 L 13.953125 0 L 8.953125 0 L 8.953125 -1.640625 C 7.554688 -0.335938 6.144531 0.3125 4.71875 0.3125 Z M 4.71875 0.3125 "/>
            </g>
        </g>
    </g>
    <g fill="#000000" fill-opacity="1">
        <g transform="translate(392.566385, 207.053996)">
            <g>
                <path d="M 7.078125 0.3125 C 5.484375 0.3125 4.164062 -0.0390625 3.125 -0.75 C 2.09375 -1.46875 1.257812 -2.609375 0.625 -4.171875 L 4.046875 -5.6875 C 4.367188 -4.863281 4.75 -4.222656 5.1875 -3.765625 C 5.632812 -3.316406 6.128906 -3.09375 6.671875 -3.09375 C 7.453125 -3.09375 7.84375 -3.398438 7.84375 -4.015625 C 7.84375 -4.460938 7.6875 -4.867188 7.375 -5.234375 C 7.070312 -5.597656 6.40625 -6.203125 5.375 -7.046875 L 4.078125 -8.125 C 3.003906 -9.03125 2.222656 -9.851562 1.734375 -10.59375 C 1.253906 -11.332031 1.015625 -12.21875 1.015625 -13.25 C 1.015625 -14.195312 1.265625 -15.039062 1.765625 -15.78125 C 2.273438 -16.519531 2.953125 -17.097656 3.796875 -17.515625 C 4.640625 -17.941406 5.546875 -18.15625 6.515625 -18.15625 C 7.972656 -18.15625 9.191406 -17.757812 10.171875 -16.96875 C 11.148438 -16.175781 11.84375 -15.035156 12.25 -13.546875 L 9.015625 -12.078125 C 8.804688 -12.734375 8.484375 -13.320312 8.046875 -13.84375 C 7.617188 -14.375 7.148438 -14.640625 6.640625 -14.640625 C 6.304688 -14.640625 6.039062 -14.546875 5.84375 -14.359375 C 5.65625 -14.171875 5.5625 -13.921875 5.5625 -13.609375 C 5.5625 -13.242188 5.757812 -12.84375 6.15625 -12.40625 C 6.5625 -11.976562 7.195312 -11.414062 8.0625 -10.71875 L 9.328125 -9.609375 C 10.359375 -8.742188 11.148438 -7.929688 11.703125 -7.171875 C 12.253906 -6.421875 12.53125 -5.539062 12.53125 -4.53125 C 12.53125 -3.53125 12.273438 -2.660156 11.765625 -1.921875 C 11.265625 -1.191406 10.597656 -0.632812 9.765625 -0.25 C 8.929688 0.125 8.035156 0.3125 7.078125 0.3125 Z M 7.078125 0.3125 "/>
            </g>
        </g>
    </g>
    <g fill="#000000" fill-opacity="1">
        <g transform="translate(405.654548, 207.053996)">
            <g>
                <path d="M 1.578125 -24.359375 L 6.640625 -24.359375 L 6.640625 -20.875 L 1.578125 -20.875 Z M 1.609375 -17.84375 L 6.640625 -17.84375 L 6.640625 0 L 1.609375 0 Z M 1.609375 -17.84375 "/>
            </g>
        </g>
    </g>
    <g fill="#000000" fill-opacity="1">
        <g transform="translate(413.834649, 207.053996)">
            <g>
                <path d="M 5.25 0.3125 C 4.382812 0.3125 3.632812 0.101562 3 -0.3125 C 2.375 -0.738281 1.898438 -1.285156 1.578125 -1.953125 C 1.265625 -2.628906 1.109375 -3.328125 1.109375 -4.046875 C 1.109375 -5.421875 1.457031 -6.550781 2.15625 -7.4375 C 2.863281 -8.320312 3.703125 -9.007812 4.671875 -9.5 C 5.648438 -10 6.910156 -10.515625 8.453125 -11.046875 L 8.453125 -12.84375 C 8.453125 -13.351562 8.375 -13.742188 8.21875 -14.015625 C 8.070312 -14.285156 7.800781 -14.421875 7.40625 -14.421875 C 7.019531 -14.421875 6.742188 -14.296875 6.578125 -14.046875 C 6.410156 -13.796875 6.316406 -13.445312 6.296875 -13 L 6.171875 -11.703125 L 1.484375 -11.890625 C 1.566406 -14.023438 2.128906 -15.601562 3.171875 -16.625 C 4.222656 -17.644531 5.789062 -18.15625 7.875 -18.15625 C 9.625 -18.15625 10.960938 -17.664062 11.890625 -16.6875 C 12.816406 -15.707031 13.28125 -14.40625 13.28125 -12.78125 L 13.28125 -4.453125 C 13.28125 -2.640625 13.378906 -1.15625 13.578125 0 L 9.078125 0 C 8.890625 -1.375 8.753906 -2.21875 8.671875 -2.53125 C 8.429688 -1.707031 8.019531 -1.023438 7.4375 -0.484375 C 6.863281 0.046875 6.132812 0.3125 5.25 0.3125 Z M 7.046875 -3.09375 C 7.554688 -3.09375 8.023438 -3.390625 8.453125 -3.984375 L 8.453125 -8.859375 C 7.535156 -8.328125 6.835938 -7.765625 6.359375 -7.171875 C 5.890625 -6.585938 5.65625 -5.875 5.65625 -5.03125 C 5.65625 -4.4375 5.773438 -3.960938 6.015625 -3.609375 C 6.265625 -3.265625 6.609375 -3.09375 7.046875 -3.09375 Z M 7.046875 -3.09375 "/>
            </g>
        </g>
    </g>
    <g fill="#000000" fill-opacity="1">
        <g transform="translate(428.527954, 207.053996)">
            <g>
                <path d="M 7.078125 0.3125 C 5.484375 0.3125 4.164062 -0.0390625 3.125 -0.75 C 2.09375 -1.46875 1.257812 -2.609375 0.625 -4.171875 L 4.046875 -5.6875 C 4.367188 -4.863281 4.75 -4.222656 5.1875 -3.765625 C 5.632812 -3.316406 6.128906 -3.09375 6.671875 -3.09375 C 7.453125 -3.09375 7.84375 -3.398438 7.84375 -4.015625 C 7.84375 -4.460938 7.6875 -4.867188 7.375 -5.234375 C 7.070312 -5.597656 6.40625 -6.203125 5.375 -7.046875 L 4.078125 -8.125 C 3.003906 -9.03125 2.222656 -9.851562 1.734375 -10.59375 C 1.253906 -11.332031 1.015625 -12.21875 1.015625 -13.25 C 1.015625 -14.195312 1.265625 -15.039062 1.765625 -15.78125 C 2.273438 -16.519531 2.953125 -17.097656 3.796875 -17.515625 C 4.640625 -17.941406 5.546875 -18.15625 6.515625 -18.15625 C 7.972656 -18.15625 9.191406 -17.757812 10.171875 -16.96875 C 11.148438 -16.175781 11.84375 -15.035156 12.25 -13.546875 L 9.015625 -12.078125 C 8.804688 -12.734375 8.484375 -13.320312 8.046875 -13.84375 C 7.617188 -14.375 7.148438 -14.640625 6.640625 -14.640625 C 6.304688 -14.640625 6.039062 -14.546875 5.84375 -14.359375 C 5.65625 -14.171875 5.5625 -13.921875 5.5625 -13.609375 C 5.5625 -13.242188 5.757812 -12.84375 6.15625 -12.40625 C 6.5625 -11.976562 7.195312 -11.414062 8.0625 -10.71875 L 9.328125 -9.609375 C 10.359375 -8.742188 11.148438 -7.929688 11.703125 -7.171875 C 12.253906 -6.421875 12.53125 -5.539062 12.53125 -4.53125 C 12.53125 -3.53125 12.273438 -2.660156 11.765625 -1.921875 C 11.265625 -1.191406 10.597656 -0.632812 9.765625 -0.25 C 8.929688 0.125 8.035156 0.3125 7.078125 0.3125 Z M 7.078125 0.3125 "/>
            </g>
        </g>
    </g>
    <g fill="#000000" fill-opacity="1">
        <g transform="translate(441.616116, 207.053996)">
            <g>
                <path d="M 7.09375 0.1875 C 5.78125 0.1875 4.765625 0 4.046875 -0.375 C 3.328125 -0.757812 2.820312 -1.3125 2.53125 -2.03125 C 2.238281 -2.757812 2.09375 -3.695312 2.09375 -4.84375 L 2.09375 -14.546875 L 0.375 -14.546875 L 0.375 -17.84375 L 2.09375 -17.84375 L 2.09375 -23.28125 L 7.1875 -23.28125 L 7.1875 -17.84375 L 9.71875 -17.84375 L 9.71875 -14.546875 L 7.1875 -14.546875 L 7.1875 -5.34375 C 7.1875 -4.84375 7.328125 -4.472656 7.609375 -4.234375 C 7.890625 -4.003906 8.273438 -3.890625 8.765625 -3.890625 C 9.179688 -3.890625 9.632812 -3.929688 10.125 -4.015625 L 10.125 -0.0625 C 9.132812 0.101562 8.125 0.1875 7.09375 0.1875 Z M 7.09375 0.1875 "/>
            </g>
        </g>
    </g>
    <g fill="#000000" fill-opacity="1">
        <g transform="translate(452.543488, 207.053996)">
            <g/>
        </g>
    </g>
    <g fill="#000000" fill-opacity="1">
        <g transform="translate(460.445771, 207.053996)">
            <g>
                <path d="M 1.671875 -7.4375 L 7.65625 -11.765625 L 1.671875 -16.03125 L 1.671875 -20.375 L 11.234375 -13.671875 L 11.234375 -9.78125 L 1.671875 -3.09375 Z M 1.671875 -7.4375 "/>
            </g>
        </g>
    </g>
</svg>